<svg width="80" height="80" viewBox="0 0 80 80" fill="none" xmlns="http://www.w3.org/2000/svg">
<path d="M14.4563 33.9646C13.4128 33.1995 11.9462 33.4244 11.1801 34.4685C8.78642 37.7319 8.75142 42.2064 11.1754 45.5274C11.9386 46.5728 13.4044 46.802 14.4505 46.0387C15.496 45.2756 15.7249 43.8093 14.9618 42.7636C13.7492 41.1024 13.7696 38.8636 14.9601 37.2406C15.7257 36.197 15.5001 34.7302 14.4563 33.9646Z" fill="#77EA44"/>
<path d="M6.06548 29.5241C4.95779 28.8539 3.51665 29.2088 2.84694 30.3163C-1.15804 36.9364 -0.684275 44.1015 2.69021 49.6832C3.36023 50.7911 4.80122 51.1458 5.90876 50.4764C7.01645 49.8067 7.37146 48.3657 6.70191 47.2578C4.16729 43.066 3.80541 37.7885 6.8577 32.7424C7.52787 31.635 7.17317 30.194 6.06548 29.5241Z" fill="#77EA44"/>
<path d="M65.5419 33.9646C64.4979 34.7303 64.2725 36.197 65.038 37.2408C66.2286 38.8641 66.2486 41.103 65.0362 42.7638C64.2731 43.8095 64.502 45.2758 65.5475 46.0389C66.5925 46.8016 68.059 46.5735 68.8226 45.5277C71.248 42.2044 71.2102 37.7302 68.8179 34.4687C68.0524 33.4244 66.5857 33.1994 65.5419 33.9646Z" fill="#77EA44"/>
<path d="M77.3066 30.3164C76.6367 29.2089 75.1956 28.8539 74.088 29.5242C72.9803 30.1941 72.6258 31.6352 73.2958 32.7427C75.9829 37.1848 75.9859 42.8084 73.2954 47.2582C72.6258 48.3661 72.9808 49.8071 74.0885 50.4768C75.1971 51.1466 76.6375 50.7907 77.3071 49.6836C80.8944 43.7494 80.9006 36.2572 77.3066 30.3164Z" fill="#77EA44"/>
<path d="M39.9983 47.0317C36.1211 47.0317 32.9668 50.1861 32.9668 54.0632C32.9668 57.9404 36.1211 61.0947 39.9983 61.0947C43.8754 61.0947 47.0298 57.9404 47.0298 54.0632C47.0298 50.1861 43.8756 47.0317 39.9983 47.0317ZM39.9983 56.407C38.7039 56.407 37.6545 55.3576 37.6545 54.0632C37.6545 52.7688 38.7039 51.7194 39.9983 51.7194C41.2927 51.7194 42.3421 52.7688 42.3421 54.0632C42.3421 55.3576 41.2929 56.407 39.9983 56.407Z" fill="#77EA44"/>
<path d="M39.9983 18.9058C36.1211 18.9058 32.9668 22.0601 32.9668 25.9372C32.9668 29.8144 36.1211 32.9687 39.9983 32.9687C43.8754 32.9687 47.0298 29.8144 47.0298 25.9372C47.0298 22.0601 43.8756 18.9058 39.9983 18.9058ZM39.9983 28.2811C38.7039 28.2811 37.6545 27.2317 37.6545 25.9372C37.6545 24.6428 38.7039 23.5934 39.9983 23.5934C41.2927 23.5934 42.3421 24.6428 42.3421 25.9372C42.3421 27.2317 41.2929 28.2811 39.9983 28.2811Z" fill="#77EA44"/>
<path d="M54.0617 4.84277H25.9358C22.0586 4.84277 18.9043 7.9971 18.9043 11.8743V68.1261C18.9043 72.0033 22.0586 75.1576 25.9358 75.1576H54.0617C57.9389 75.1576 61.0932 72.0033 61.0932 68.1261V11.8743C61.0932 7.99694 57.939 4.84277 54.0617 4.84277ZM39.9987 65.7823C33.5368 65.7823 28.2796 60.5251 28.2796 54.0632C28.2796 47.6012 33.5368 42.344 39.9987 42.344C46.4607 42.344 51.7179 47.6012 51.7179 54.0632C51.7179 60.5251 46.4608 65.7823 39.9987 65.7823ZM39.9987 37.6564C33.5368 37.6564 28.2796 32.3992 28.2796 25.9372C28.2796 19.4753 33.5368 14.2181 39.9987 14.2181C46.4607 14.2181 51.7179 19.4753 51.7179 25.9372C51.7179 32.3992 46.4608 37.6564 39.9987 37.6564Z" fill="#77EA44"/>
</svg>
