<svg width="80" height="80" viewBox="0 0 80 80" fill="none" xmlns="http://www.w3.org/2000/svg">
<path fill-rule="evenodd" clip-rule="evenodd" d="M9.42338 40C9.42338 27.0442 19.9262 16.5412 32.8822 16.5412C45.8382 16.5412 56.3408 27.0442 56.3408 40C56.3408 52.9558 45.8382 63.4588 32.8822 63.4588C19.9262 63.4588 9.42338 52.9558 9.42338 40ZM56.3286 58.4625L63.9132 44.684V33.1664C63.9132 33.1422 63.9143 33.1184 63.9167 33.0949C62.3054 32.7659 61.0933 31.3406 61.0933 29.6323C61.0933 27.9237 62.3054 26.4985 63.9167 26.1694C63.9143 26.146 63.9132 26.1222 63.9132 26.098V19.2155H61.7442V10.4729H67.5105V19.2155H65.3417V26.098C65.3417 26.1222 65.3404 26.146 65.3382 26.1694C66.9493 26.4985 68.1616 27.9237 68.1616 29.6323C68.1616 31.3406 66.9493 32.7659 65.3382 33.0949C65.3404 33.1184 65.3417 33.1422 65.3417 33.1664V44.8648C65.3417 45.0053 65.3011 45.1363 65.231 45.2468L57.5714 59.1623C57.5688 59.1667 57.5664 59.1712 57.5638 59.1756L59.5205 60.3054L55.1492 67.8767L50.1553 64.9935L54.5267 57.4222L56.3286 58.4625ZM68.5866 52.0727C68.5866 50.1721 70.1272 48.6315 72.0279 48.6315C73.9284 48.6315 75.4692 50.1721 75.4692 52.0727C75.4692 53.9734 73.9284 55.514 72.0279 55.514C70.1272 55.514 68.5866 53.9734 68.5866 52.0727ZM76.2042 7.1178H3.79578C1.70799 7.1178 0 8.82579 0 10.9136V69.0866C0 71.1742 1.70799 72.8823 3.79578 72.8823H76.2042C78.292 72.8823 80 71.1742 80 69.0866V10.9136C80 8.82579 78.292 7.1178 76.2042 7.1178ZM70.0745 47.8106L70.0746 44.7253C70.0746 43.6511 70.9537 42.7722 72.0279 42.7722C73.1022 42.7722 73.981 43.6511 73.981 44.7253V47.8108C73.4262 47.4273 72.7532 47.2029 72.0279 47.2029C71.3024 47.2029 70.6294 47.4273 70.0745 47.8106ZM8.84298 59.4819C11.3598 59.4819 13.4002 61.5223 13.4002 64.0392C13.4002 66.556 11.3598 68.5964 8.84298 68.5964C6.32611 68.5964 4.28575 66.556 4.28575 64.0392C4.28575 61.5223 6.32611 59.4819 8.84298 59.4819ZM72.0279 56.9426C72.7534 56.9426 73.4262 56.7182 73.9812 56.3349L73.981 67.1137C73.981 68.188 73.1022 69.0668 72.0279 69.0668C70.9537 69.0668 70.0746 68.188 70.0746 67.1137V56.3347C70.6296 56.7182 71.3024 56.9426 72.0279 56.9426Z" fill="url(#paint0_linear_622_1722)"/>
<path d="M32.8828 51.1511C39.041 51.1511 44.0332 46.1589 44.0332 40.0007C44.0332 33.8425 39.041 28.8503 32.8828 28.8503C26.7246 28.8503 21.7324 33.8425 21.7324 40.0007C21.7324 46.1589 26.7246 51.1511 32.8828 51.1511Z" fill="url(#paint1_linear_622_1722)"/>
<defs>
<linearGradient id="paint0_linear_622_1722" x1="40" y1="7.1178" x2="40" y2="72.8823" gradientUnits="userSpaceOnUse">
<stop stop-color="#843497"/>
<stop offset="1" stop-color="#1B1A42"/>
</linearGradient>
<linearGradient id="paint1_linear_622_1722" x1="32.8828" y1="28.8503" x2="32.8828" y2="51.1511" gradientUnits="userSpaceOnUse">
<stop stop-color="#843497"/>
<stop offset="1" stop-color="#1B1A42"/>
</linearGradient>
</defs>
</svg>
