<svg width="80" height="80" viewBox="0 0 80 80" fill="none" xmlns="http://www.w3.org/2000/svg">
<g clip-path="url(#clip0_622_1716)">
<path d="M39.9984 45.2308C42.8872 45.2308 45.2291 42.8889 45.2291 40.0001C45.2291 37.1112 42.8872 34.7693 39.9984 34.7693C37.1095 34.7693 34.7676 37.1112 34.7676 40.0001C34.7676 42.8889 37.1095 45.2308 39.9984 45.2308Z" fill="#77EA44"/>
<path d="M40 0C17.9087 0 0 17.9087 0 40C0 62.0913 17.9087 80 40 80C62.0913 80 80 62.0913 80 40C80 17.9087 62.0913 0 40 0ZM24.7486 9.94831C29.3274 7.62063 34.5104 6.30788 40 6.30788C40.3224 6.30788 40.6419 6.31221 40.9614 6.32089C41.492 6.33535 41.8564 7.65388 41.7768 9.24856L41.3691 17.4562C41.2896 19.0509 40.9513 20.3275 40.613 20.3173C40.4092 20.3116 40.2053 20.3087 40 20.3087C37.1128 20.3087 34.3702 20.9303 31.8994 22.0465C30.4435 22.7043 28.7013 22.3125 27.8888 20.9376L23.7019 13.8577C22.8894 12.4827 23.3245 10.6726 24.7486 9.94831ZM23.112 25.0045L16.927 19.5945C15.7241 18.5434 15.5998 16.7116 16.755 15.6099C16.7824 15.5839 16.8085 15.5593 16.8374 15.5333C17.9969 14.4345 19.8142 14.6586 20.7944 15.9179L25.846 22.4007C26.8276 23.66 27.0561 25.1317 26.4112 25.7462C25.765 26.3635 24.3149 26.0556 23.112 25.0045ZM25.846 40C25.846 32.1827 32.1827 25.846 40 25.846C47.8173 25.846 54.154 32.1827 54.154 40C54.154 47.8173 47.8173 54.154 40 54.154C32.1827 54.154 25.846 47.8173 25.846 40ZM55.1849 70.0849C50.622 72.3924 45.4621 73.6921 40 73.6921C39.6414 73.6921 39.2843 73.6863 38.9287 73.6762C38.3374 73.6574 37.9282 72.3331 38.015 70.7384L38.4632 62.5323C38.5513 60.9376 38.9287 59.6682 39.3104 59.6812C39.5388 59.6884 39.7687 59.6928 40 59.6928C42.6515 59.6928 45.1787 59.1694 47.4876 58.221C48.9652 57.6138 50.7767 58.0128 51.6471 59.3516L56.1304 66.2479C57.0008 67.5852 56.6104 69.3635 55.1849 70.0849ZM63.0629 64.5621C61.9554 65.6031 60.1641 65.3587 59.155 64.1212L53.9647 57.7497C52.9555 56.5121 52.6982 55.0779 53.3357 54.4895C53.9748 53.901 55.422 54.2307 56.6234 55.2832L62.8113 60.6961C64.0142 61.7472 64.1718 63.5212 63.0629 64.5621Z" fill="#77EA44"/>
</g>
<defs>
<clipPath id="clip0_622_1716">
<rect width="80" height="80" fill="white"/>
</clipPath>
</defs>
</svg>
