<svg width="80" height="80" viewBox="0 0 80 80" fill="none" xmlns="http://www.w3.org/2000/svg">
<path d="M45.334 44C42.7167 44 41.2887 48.3507 41.274 48.4C41.1896 48.6717 41.0205 48.9093 40.7914 49.0781C40.5623 49.2468 40.2852 49.3379 40.0007 49.3379C39.7161 49.3379 39.4391 49.2468 39.21 49.0781C38.9809 48.9093 38.8117 48.6717 38.7273 48.4C38.706 48.328 37.2767 44 34.6673 44C34.1049 44.0232 33.5529 44.1596 33.0443 44.401C32.5358 44.6425 32.0812 44.9841 31.7078 45.4053C31.3344 45.8266 31.0497 46.3188 30.871 46.8526C30.6922 47.3864 30.6229 47.9508 30.6673 48.512C30.6673 52.2293 35.0407 55.2907 40.0007 59.5667C45.658 54.6907 49.334 52.0293 49.334 48.512C49.3784 47.9508 49.3092 47.3864 49.1304 46.8526C48.9516 46.3188 48.667 45.8266 48.2936 45.4053C47.9201 44.9841 47.4655 44.6425 46.957 44.401C46.4485 44.1596 45.8965 44.0232 45.334 44Z" fill="url(#paint0_linear_622_1728)"/>
<path d="M58.6673 38.6667H21.334V65.3334H58.6673V38.6667ZM43.6353 59.9667C40.6673 62.5014 40.682 62.6667 40.0007 62.6667C39.3193 62.6667 39.298 62.4654 36.366 59.9667C31.334 55.6734 28.0007 52.8374 28.0007 48.5121C27.9583 47.6009 28.098 46.6904 28.4117 45.8339C28.7253 44.9773 29.2065 44.1919 29.8273 43.5235C30.448 42.8551 31.1957 42.3172 32.0268 41.9411C32.8578 41.5651 33.7555 41.3585 34.6673 41.3334C35.7861 41.4115 36.8656 41.7783 37.8004 42.398C38.7351 43.0177 39.4932 43.8692 40.0007 44.8694C40.5081 43.8692 41.2662 43.0177 42.2009 42.398C43.1357 41.7783 44.2152 41.4115 45.334 41.3334C46.2458 41.3585 47.1435 41.5651 47.9745 41.9411C48.8056 42.3172 49.5533 42.8551 50.174 43.5235C50.7948 44.1919 51.276 44.9773 51.5896 45.8339C51.9033 46.6904 52.043 47.6009 52.0007 48.5121C52.0007 52.8374 48.6673 55.6734 43.6353 59.9667Z" fill="url(#paint1_linear_622_1728)"/>
<path d="M74.6673 41.3333H61.334V65.3333H74.6673V41.3333ZM68.0007 62.6666C67.2095 62.6666 66.4362 62.432 65.7784 61.9925C65.1206 61.5529 64.6079 60.9282 64.3051 60.1973C64.0024 59.4664 63.9232 58.6621 64.0775 57.8862C64.2319 57.1103 64.6128 56.3976 65.1722 55.8382C65.7316 55.2788 66.4444 54.8978 67.2203 54.7434C67.9962 54.5891 68.8005 54.6683 69.5314 54.9711C70.2623 55.2738 70.887 55.7865 71.3265 56.4443C71.7661 57.1021 72.0007 57.8755 72.0007 58.6666C72.0007 59.7275 71.5792 60.7449 70.8291 61.495C70.0789 62.2452 69.0615 62.6666 68.0007 62.6666ZM68.0007 51.9999C67.2095 51.9999 66.4362 51.7653 65.7784 51.3258C65.1206 50.8863 64.6079 50.2616 64.3051 49.5307C64.0024 48.7997 63.9232 47.9955 64.0775 47.2196C64.2319 46.4436 64.6128 45.7309 65.1722 45.1715C65.7316 44.6121 66.4444 44.2311 67.2203 44.0768C67.9962 43.9224 68.8005 44.0017 69.5314 44.3044C70.2623 44.6072 70.887 45.1198 71.3265 45.7776C71.7661 46.4354 72.0007 47.2088 72.0007 47.9999C72.0007 49.0608 71.5792 50.0782 70.8291 50.8283C70.0789 51.5785 69.0615 51.9999 68.0007 51.9999Z" fill="url(#paint2_linear_622_1728)"/>
<path d="M67.9993 49.3334C68.7357 49.3334 69.3327 48.7365 69.3327 48.0001C69.3327 47.2637 68.7357 46.6667 67.9993 46.6667C67.263 46.6667 66.666 47.2637 66.666 48.0001C66.666 48.7365 67.263 49.3334 67.9993 49.3334Z" fill="url(#paint3_linear_622_1728)"/>
<path d="M11.9993 59.9999C12.7357 59.9999 13.3327 59.403 13.3327 58.6666C13.3327 57.9302 12.7357 57.3333 11.9993 57.3333C11.263 57.3333 10.666 57.9302 10.666 58.6666C10.666 59.403 11.263 59.9999 11.9993 59.9999Z" fill="url(#paint4_linear_622_1728)"/>
<path d="M67.9993 59.9999C68.7357 59.9999 69.3327 59.403 69.3327 58.6666C69.3327 57.9302 68.7357 57.3333 67.9993 57.3333C67.263 57.3333 66.666 57.9302 66.666 58.6666C66.666 59.403 67.263 59.9999 67.9993 59.9999Z" fill="url(#paint5_linear_622_1728)"/>
<path d="M18.6673 41.3333H5.33398V65.3333H18.6673V41.3333ZM12.0007 62.6666C11.2095 62.6666 10.4362 62.432 9.77837 61.9925C9.12057 61.5529 8.60788 60.9282 8.30513 60.1973C8.00238 59.4664 7.92317 58.6621 8.07751 57.8862C8.23185 57.1103 8.61281 56.3976 9.17222 55.8382C9.73163 55.2788 10.4444 54.8978 11.2203 54.7434C11.9962 54.5891 12.8005 54.6683 13.5314 54.9711C14.2623 55.2738 14.887 55.7865 15.3265 56.4443C15.7661 57.1021 16.0007 57.8755 16.0007 58.6666C16.0007 59.7275 15.5792 60.7449 14.8291 61.495C14.0789 62.2452 13.0615 62.6666 12.0007 62.6666ZM12.0007 51.9999C11.2095 51.9999 10.4362 51.7653 9.77837 51.3258C9.12057 50.8863 8.60788 50.2616 8.30513 49.5307C8.00238 48.7997 7.92317 47.9955 8.07751 47.2196C8.23185 46.4436 8.61281 45.7309 9.17222 45.1715C9.73163 44.6121 10.4444 44.2311 11.2203 44.0768C11.9962 43.9224 12.8005 44.0017 13.5314 44.3044C14.2623 44.6072 14.887 45.1198 15.3265 45.7776C15.7661 46.4354 16.0007 47.2088 16.0007 47.9999C16.0007 49.0608 15.5792 50.0782 14.8291 50.8283C14.0789 51.5785 13.0615 51.9999 12.0007 51.9999Z" fill="url(#paint6_linear_622_1728)"/>
<path d="M77.3327 68H2.66602V73.3333H77.3327V68Z" fill="url(#paint7_linear_622_1728)"/>
<path d="M11.9993 49.3334C12.7357 49.3334 13.3327 48.7365 13.3327 48.0001C13.3327 47.2637 12.7357 46.6667 11.9993 46.6667C11.263 46.6667 10.666 47.2637 10.666 48.0001C10.666 48.7365 11.263 49.3334 11.9993 49.3334Z" fill="url(#paint8_linear_622_1728)"/>
<path d="M15.6702 8.02131C15.8035 8.02131 13.8915 8.24265 7.67019 9.02131C7.02535 9.10189 6.43214 9.41517 6.00199 9.90228C5.57184 10.3894 5.33437 11.0168 5.33419 11.6666V20.0666C4.53491 19.7855 3.66691 19.7661 2.85586 20.0112C2.04481 20.2563 1.33282 20.7531 0.822961 21.4298C0.313105 22.1065 0.0318529 22.9279 0.0199268 23.7751C0.00800073 24.6223 0.26602 25.4513 0.756626 26.1421C1.24723 26.8328 1.94496 27.3495 2.74879 27.6173C3.55261 27.8852 4.42082 27.8902 5.22769 27.6317C6.03456 27.3732 6.73823 26.8646 7.2368 26.1796C7.73537 25.4945 8.00297 24.6686 8.00085 23.8213V17L16.0009 16V20.068C15.2016 19.7869 14.3336 19.7675 13.5225 20.0125C12.7115 20.2576 11.9995 20.7545 11.4896 21.4312C10.9798 22.1079 10.6985 22.9293 10.6866 23.7764C10.6747 24.6236 10.9327 25.4526 11.4233 26.1434C11.9139 26.8342 12.6116 27.3509 13.4155 27.6187C14.2193 27.8865 15.0875 27.8915 15.8944 27.633C16.7012 27.3745 17.4049 26.866 17.9035 26.1809C18.402 25.4959 18.6696 24.6699 18.6675 23.8226V10.6666C18.6674 10.2886 18.5869 9.9149 18.4314 9.57033C18.2759 9.22576 18.0489 8.9182 17.7654 8.66804C17.482 8.41788 17.1486 8.23085 16.7873 8.11935C16.4261 8.00786 16.0453 7.97444 15.6702 8.02131Z" fill="url(#paint9_linear_622_1728)"/>
<path d="M79.0982 14C78.8179 13.7448 78.4847 13.5545 78.1224 13.4427C77.7601 13.331 77.3776 13.3004 77.0022 13.3534L69.0022 14.3534C68.3572 14.434 67.7638 14.7474 67.3336 15.2348C66.9034 15.7222 66.6661 16.35 66.6662 17V25.4C65.8669 25.1189 64.9989 25.0995 64.1879 25.3446C63.3768 25.5897 62.6648 26.0865 62.155 26.7632C61.6451 27.4399 61.3639 28.2613 61.352 29.1085C61.34 29.9557 61.5981 30.7847 62.0887 31.4755C62.5793 32.1662 63.277 32.6829 64.0808 32.9507C64.8846 33.2185 65.7528 33.2236 66.5597 32.9651C67.3666 32.7066 68.0703 32.198 68.5688 31.513C69.0674 30.8279 69.335 30.002 69.3329 29.1547V22.3334L77.3329 21.3334V25.4014C76.5408 25.1191 75.6799 25.0941 74.8728 25.3299C74.0657 25.5657 73.3536 26.0502 72.838 26.7144C72.3224 27.3786 72.0297 28.1886 72.0014 29.0289C71.9732 29.8693 72.2109 30.6971 72.6808 31.3944C73.1506 32.0918 73.8286 32.623 74.618 32.9124C75.4075 33.2018 76.2682 33.2346 77.0774 33.0062C77.8866 32.7778 78.603 32.2997 79.1246 31.6402C79.6462 30.9807 79.9464 30.1734 79.9822 29.3334H79.9996V16C79.9997 15.6218 79.9195 15.2479 79.7641 14.9031C79.6087 14.5582 79.3817 14.2504 79.0982 14Z" fill="url(#paint10_linear_622_1728)"/>
<path d="M39.9996 18.6668C39.4107 18.5984 38.8476 18.3868 38.3595 18.0504C37.8714 17.7141 37.4731 17.2633 37.1996 16.7374C37.0675 16.4646 36.8464 16.2449 36.5727 16.1146C36.2991 15.9843 35.9892 15.9511 35.6941 16.0205C35.3991 16.09 35.1365 16.2578 34.9496 16.4965C34.7628 16.7351 34.6628 17.0303 34.6662 17.3334V24.2454C33.8669 23.9643 32.9989 23.9449 32.1879 24.19C31.3768 24.4351 30.6648 24.9319 30.155 25.6086C29.6451 26.2853 29.3639 27.1067 29.352 27.9539C29.34 28.8011 29.5981 29.6301 30.0887 30.3208C30.5793 31.0116 31.277 31.5283 32.0808 31.7961C32.8846 32.0639 33.7528 32.069 34.5597 31.8105C35.3666 31.552 36.0703 31.0434 36.5688 30.3584C37.0674 29.6733 37.335 28.8474 37.3329 28.0001V20.6028C38.1395 21.0825 39.061 21.335 39.9996 21.3334C40.3532 21.3334 40.6923 21.193 40.9424 20.9429C41.1924 20.6929 41.3329 20.3537 41.3329 20.0001C41.3329 19.6465 41.1924 19.3073 40.9424 19.0573C40.6923 18.8072 40.3532 18.6668 39.9996 18.6668Z" fill="url(#paint11_linear_622_1728)"/>
<path d="M58.6675 6.66676C58.0787 6.59839 57.5156 6.38678 57.0275 6.05044C56.5394 5.71411 56.1411 5.26329 55.8675 4.73743C55.7354 4.46462 55.5144 4.24495 55.2407 4.11463C54.967 3.98432 54.6571 3.95113 54.3621 4.02054C54.067 4.08996 53.8044 4.25783 53.6176 4.49649C53.4307 4.73514 53.3308 5.03035 53.3342 5.33343V12.2454C52.5349 11.9643 51.6669 11.9449 50.8559 12.19C50.0448 12.4351 49.3328 12.9319 48.823 13.6086C48.3131 14.2853 48.0319 15.1067 48.0199 15.9539C48.008 16.8011 48.266 17.6301 48.7566 18.3208C49.2472 19.0116 49.945 19.5283 50.7488 19.7961C51.5526 20.0639 52.4208 20.069 53.2277 19.8105C54.0346 19.552 54.7382 19.0434 55.2368 18.3584C55.7354 17.6733 56.003 16.8474 56.0009 16.0001V8.60276C56.8075 9.08251 57.729 9.33499 58.6675 9.33343C59.0211 9.33343 59.3603 9.19295 59.6103 8.94291C59.8604 8.69286 60.0009 8.35372 60.0009 8.0001C60.0009 7.64647 59.8604 7.30734 59.6103 7.05729C59.3603 6.80724 59.0211 6.66676 58.6675 6.66676Z" fill="url(#paint12_linear_622_1728)"/>
<defs>
<linearGradient id="paint0_linear_622_1728" x1="40.0007" y1="44" x2="40.0007" y2="59.5667" gradientUnits="userSpaceOnUse">
<stop stop-color="#843497"/>
<stop offset="1" stop-color="#1B1A42"/>
</linearGradient>
<linearGradient id="paint1_linear_622_1728" x1="40.0007" y1="38.6667" x2="40.0007" y2="65.3334" gradientUnits="userSpaceOnUse">
<stop stop-color="#843497"/>
<stop offset="1" stop-color="#1B1A42"/>
</linearGradient>
<linearGradient id="paint2_linear_622_1728" x1="68.0007" y1="41.3333" x2="68.0007" y2="65.3333" gradientUnits="userSpaceOnUse">
<stop stop-color="#843497"/>
<stop offset="1" stop-color="#1B1A42"/>
</linearGradient>
<linearGradient id="paint3_linear_622_1728" x1="67.9993" y1="46.6667" x2="67.9993" y2="49.3334" gradientUnits="userSpaceOnUse">
<stop stop-color="#843497"/>
<stop offset="1" stop-color="#1B1A42"/>
</linearGradient>
<linearGradient id="paint4_linear_622_1728" x1="11.9993" y1="57.3333" x2="11.9993" y2="59.9999" gradientUnits="userSpaceOnUse">
<stop stop-color="#843497"/>
<stop offset="1" stop-color="#1B1A42"/>
</linearGradient>
<linearGradient id="paint5_linear_622_1728" x1="67.9993" y1="57.3333" x2="67.9993" y2="59.9999" gradientUnits="userSpaceOnUse">
<stop stop-color="#843497"/>
<stop offset="1" stop-color="#1B1A42"/>
</linearGradient>
<linearGradient id="paint6_linear_622_1728" x1="12.0007" y1="41.3333" x2="12.0007" y2="65.3333" gradientUnits="userSpaceOnUse">
<stop stop-color="#843497"/>
<stop offset="1" stop-color="#1B1A42"/>
</linearGradient>
<linearGradient id="paint7_linear_622_1728" x1="39.9994" y1="68" x2="39.9994" y2="73.3333" gradientUnits="userSpaceOnUse">
<stop stop-color="#843497"/>
<stop offset="1" stop-color="#1B1A42"/>
</linearGradient>
<linearGradient id="paint8_linear_622_1728" x1="11.9993" y1="46.6667" x2="11.9993" y2="49.3334" gradientUnits="userSpaceOnUse">
<stop stop-color="#843497"/>
<stop offset="1" stop-color="#1B1A42"/>
</linearGradient>
<linearGradient id="paint9_linear_622_1728" x1="9.34353" y1="8.00073" x2="9.34353" y2="27.8233" gradientUnits="userSpaceOnUse">
<stop stop-color="#843497"/>
<stop offset="1" stop-color="#1B1A42"/>
</linearGradient>
<linearGradient id="paint10_linear_622_1728" x1="70.6756" y1="13.3281" x2="70.6756" y2="33.1564" gradientUnits="userSpaceOnUse">
<stop stop-color="#843497"/>
<stop offset="1" stop-color="#1B1A42"/>
</linearGradient>
<linearGradient id="paint11_linear_622_1728" x1="35.3422" y1="15.9851" x2="35.3422" y2="32.0007" gradientUnits="userSpaceOnUse">
<stop stop-color="#843497"/>
<stop offset="1" stop-color="#1B1A42"/>
</linearGradient>
<linearGradient id="paint12_linear_622_1728" x1="54.0102" y1="3.98511" x2="54.0102" y2="20.0007" gradientUnits="userSpaceOnUse">
<stop stop-color="#843497"/>
<stop offset="1" stop-color="#1B1A42"/>
</linearGradient>
</defs>
</svg>
