<svg width="80" height="80" viewBox="0 0 80 80" fill="none" xmlns="http://www.w3.org/2000/svg">
<path d="M78.0194 45.4451H62.367C61.2733 45.4451 60.3867 46.3318 60.3867 47.4254V75.2894C60.3867 76.3832 61.2733 77.2698 62.367 77.2698H78.0194C79.1131 77.2698 79.9997 76.383 79.9997 75.2894V47.4254C79.9997 46.3318 79.113 45.4451 78.0194 45.4451ZM70.1931 50.5438C71.9755 50.5438 73.4205 51.9887 73.4205 53.7712C73.4205 55.5537 71.9756 56.9985 70.1931 56.9985C68.4108 56.9985 66.9658 55.5537 66.9658 53.7712C66.9658 51.9887 68.4108 50.5438 70.1931 50.5438ZM70.1964 71.6129C67.2219 71.6129 64.8106 69.2016 64.8106 66.2271C64.8106 63.2526 67.2219 60.8413 70.1964 60.8413C73.1709 60.8413 75.5822 63.2526 75.5822 66.2271C75.5823 69.2016 73.1709 71.6129 70.1964 71.6129Z" fill="#77EA44"/>
<path d="M63.8188 15.9559C63.8188 15.9293 63.8017 9.08994 63.8017 9.06322L68.865 7.29104V12.7228C67.8581 12.6413 66.4433 13.0604 66.4433 13.9735C66.4433 14.6715 67.3978 15.2373 68.5755 15.2373C69.7531 15.2373 70.7075 14.6715 70.7075 13.9735H70.74V6.66822C70.74 5.68104 69.7652 4.98932 68.8334 5.31557L63.433 7.20572C62.5309 7.5215 61.9269 8.37291 61.9269 9.32869V14.7006C60.9403 14.6348 59.5547 15.0546 59.5547 15.9557C59.5547 16.6537 60.5092 17.2195 61.6867 17.2195C62.8642 17.2195 63.8188 16.6538 63.8188 15.9559Z" fill="#77EA44"/>
<path d="M68.6783 23.2274C69.6556 22.8853 70.1706 21.8156 69.8284 20.8381L65.3331 22.4116V29.3792C64.3466 29.3134 62.9609 29.7333 62.9609 30.6344C62.9609 31.3324 63.9155 31.8981 65.093 31.8981C66.2705 31.8981 67.225 31.3324 67.225 30.6344C67.225 30.5827 67.2181 30.5319 67.208 30.4819V23.7417L68.6783 23.2274Z" fill="#77EA44"/>
<path d="M24.4736 12.3734V5.63357L25.9437 5.11904C26.9211 4.77701 27.4361 3.70732 27.0941 2.72998L22.5986 4.30326V11.2709C21.6122 11.2056 20.2266 11.625 20.2266 12.5262C20.2266 13.2242 21.1811 13.79 22.3586 13.79C23.3739 13.7901 24.6562 13.2689 24.4736 12.3734Z" fill="#77EA44"/>
<path d="M56.616 45.4452H52.604L52.6148 45.4347L52.4501 43.3554L49.3449 45.4347L49.3566 45.4452H49.3291H45.772L56.1949 38.4652C57.222 37.7774 57.742 36.5449 57.5182 35.3293C57.2252 33.7377 55.8327 26.1754 55.5396 24.583C54.9276 21.2591 52.0988 18.8194 48.7496 18.6763C47.2416 20.7679 44.7863 22.1333 42.0168 22.1333C39.2459 22.1333 36.7896 20.7666 35.2818 18.6733C31.8749 18.7571 28.9791 21.2154 28.359 24.583C28.0652 26.178 26.6723 33.7433 26.3802 35.3294C26.1563 36.5451 26.6765 37.7776 27.7035 38.4654L38.1265 45.4454H34.5693H34.5401L34.5535 45.4349L31.5765 43.4413L31.4185 45.4349L31.4266 45.4454H23.4315C22.3377 45.4454 21.4512 46.3321 21.4512 47.4257V75.2897C21.4512 76.3835 22.3377 77.2701 23.4315 77.2701H56.616C57.7098 77.2701 58.5963 76.3833 58.5963 75.2897V47.4257C58.5965 46.3319 57.7098 45.4452 56.616 45.4452ZM32.8441 34.4488L33.2346 32.3282L41.9493 38.1641L50.664 32.3282L51.0545 34.4488L43.7251 39.3571C45.6923 40.7447 46.3835 43.2915 45.4901 45.4452H43.211C44.3609 44.0122 44.0184 41.9319 42.5213 40.9294L32.8441 34.4488ZM50.2802 65.5894H29.9016C28.8359 65.5894 27.9718 64.7254 27.9718 63.6596C27.9718 62.5938 28.8359 61.7297 29.9016 61.7297H50.2802C51.346 61.7297 52.2101 62.5938 52.2101 63.6596C52.2101 64.7254 51.346 65.5894 50.2802 65.5894ZM51.1909 55.8594H29.426C28.743 55.8594 28.1893 55.3057 28.1893 54.6227C28.1893 53.9396 28.743 53.386 29.426 53.386H51.1907C51.8737 53.386 52.4274 53.9397 52.4274 54.6227C52.4276 55.3057 51.8738 55.8594 51.1909 55.8594Z" fill="#77EA44"/>
<path d="M48.3459 14.8647C48.9134 11.3639 46.5355 8.06582 43.0346 7.49831C39.5338 6.93079 36.2357 9.30873 35.6682 12.8096C35.1007 16.3104 37.4786 19.6085 40.9795 20.176C44.4803 20.7435 47.7784 18.3656 48.3459 14.8647Z" fill="#77EA44"/>
<path d="M17.6327 45.4451H1.98031C0.886562 45.4451 0 46.3318 0 47.4254V75.2894C0 76.3832 0.886562 77.2698 1.98031 77.2698H17.6327C18.7264 77.2698 19.613 76.383 19.613 75.2894V47.4254C19.6131 46.3318 18.7264 45.4451 17.6327 45.4451ZM9.80656 50.5438C11.5889 50.5438 13.0338 51.9887 13.0338 53.7712C13.0338 55.5537 11.5889 56.9985 9.80656 56.9985C8.02422 56.9985 6.57922 55.5537 6.57922 53.7712C6.57922 51.9887 8.02422 50.5438 9.80656 50.5438ZM9.80984 71.6129C6.83531 71.6129 4.42406 69.2016 4.42406 66.2271C4.42406 63.2526 6.83531 60.8413 9.80984 60.8413C12.7844 60.8413 15.1956 63.2526 15.1956 66.2271C15.1956 69.2016 12.7844 71.6129 9.80984 71.6129Z" fill="#77EA44"/>
</svg>
