<svg width="80" height="80" viewBox="0 0 80 80" fill="none" xmlns="http://www.w3.org/2000/svg">
<g clip-path="url(#clip0_599_1633)">
<mask id="mask0_599_1633" style="mask-type:luminance" maskUnits="userSpaceOnUse" x="0" y="0" width="80" height="80">
<path d="M0 0H80V80H0V0Z" fill="white"/>
</mask>
<g mask="url(#mask0_599_1633)">
<path d="M60.0003 31.6667V20.0001C60.0003 18.1667 58.5003 16.6667 56.667 16.6667H10.0003C8.16699 16.6667 6.66699 18.1667 6.66699 20.0001V60.0001C6.66699 61.8334 8.16699 63.3334 10.0003 63.3334H56.667C58.5003 63.3334 60.0003 61.8334 60.0003 60.0001V48.3334L73.3337 61.6668V18.3334L60.0003 31.6667ZM43.3337 51.6667V43.3334H23.3337V51.6667L11.667 40.0001L23.3337 28.3334V36.6667H43.3337V28.3334L55.0003 40.0001L43.3337 51.6667Z" fill="#77EA44"/>
</g>
</g>
<defs>
<clipPath id="clip0_599_1633">
<rect width="80" height="80" fill="white"/>
</clipPath>
</defs>
</svg>
