<svg width="80" height="80" viewBox="0 0 80 80" fill="none" xmlns="http://www.w3.org/2000/svg">
<g clip-path="url(#clip0_599_1589)">
<path d="M62.5 15H17.5C16.837 15 16.2011 15.2634 15.7322 15.7322C15.2634 16.2011 15 16.837 15 17.5V62.5C15 63.163 15.2634 63.7989 15.7322 64.2678C16.2011 64.7366 16.837 65 17.5 65H27.5C28.163 65 28.7989 64.7366 29.2678 64.2678C29.7366 63.7989 30 63.163 30 62.5C30 61.837 29.7366 61.2011 29.2678 60.7322C28.7989 60.2634 28.163 60 27.5 60H20V20H60V60H37.5C36.837 60 36.2011 60.2634 35.7322 60.7322C35.2634 61.2011 35 61.837 35 62.5C35 63.163 35.2634 63.7989 35.7322 64.2678C36.2011 64.7366 36.837 65 37.5 65H62.5C63.163 65 63.7989 64.7366 64.2678 64.2678C64.7366 63.7989 65 63.163 65 62.5V17.5C65 16.837 64.7366 16.2011 64.2678 15.7322C63.7989 15.2634 63.163 15 62.5 15Z" fill="url(#paint0_linear_599_1589)"/>
<path d="M77.5 27.5C78.163 27.5 78.7989 27.2366 79.2678 26.7678C79.7366 26.2989 80 25.663 80 25C80 24.337 79.7366 23.7011 79.2678 23.2322C78.7989 22.7634 78.163 22.5 77.5 22.5H75V17.5H77.5C78.163 17.5 78.7989 17.2366 79.2678 16.7678C79.7366 16.2989 80 15.663 80 15C80 14.337 79.7366 13.7011 79.2678 13.2322C78.7989 12.7634 78.163 12.5 77.5 12.5H74.65C74.2011 10.7804 73.302 9.21142 72.0453 7.9547C70.7886 6.69798 69.2196 5.7989 67.5 5.35V2.5C67.5 1.83696 67.2366 1.20107 66.7678 0.732233C66.2989 0.263392 65.663 0 65 0C64.337 0 63.7011 0.263392 63.2322 0.732233C62.7634 1.20107 62.5 1.83696 62.5 2.5V5H57.5V2.5C57.5 1.83696 57.2366 1.20107 56.7678 0.732233C56.2989 0.263392 55.663 0 55 0C54.337 0 53.7011 0.263392 53.2322 0.732233C52.7634 1.20107 52.5 1.83696 52.5 2.5V5H47.5V2.5C47.5 1.83696 47.2366 1.20107 46.7678 0.732233C46.2989 0.263392 45.663 0 45 0C44.337 0 43.7011 0.263392 43.2322 0.732233C42.7634 1.20107 42.5 1.83696 42.5 2.5V5H37.5V2.5C37.5 1.83696 37.2366 1.20107 36.7678 0.732233C36.2989 0.263392 35.663 0 35 0C34.337 0 33.7011 0.263392 33.2322 0.732233C32.7634 1.20107 32.5 1.83696 32.5 2.5V5H27.5V2.5C27.5 1.83696 27.2366 1.20107 26.7678 0.732233C26.2989 0.263392 25.663 0 25 0C24.337 0 23.7011 0.263392 23.2322 0.732233C22.7634 1.20107 22.5 1.83696 22.5 2.5V5H17.5V2.5C17.5 1.83696 17.2366 1.20107 16.7678 0.732233C16.2989 0.263392 15.663 0 15 0C14.337 0 13.7011 0.263392 13.2322 0.732233C12.7634 1.20107 12.5 1.83696 12.5 2.5V5.35C10.7804 5.7989 9.21142 6.69798 7.9547 7.9547C6.69798 9.21142 5.7989 10.7804 5.35 12.5H2.5C1.83696 12.5 1.20107 12.7634 0.732233 13.2322C0.263392 13.7011 0 14.337 0 15C0 15.663 0.263392 16.2989 0.732233 16.7678C1.20107 17.2366 1.83696 17.5 2.5 17.5H5V22.5H2.5C1.83696 22.5 1.20107 22.7634 0.732233 23.2322C0.263392 23.7011 0 24.337 0 25C0 25.663 0.263392 26.2989 0.732233 26.7678C1.20107 27.2366 1.83696 27.5 2.5 27.5H5V32.5H2.5C1.83696 32.5 1.20107 32.7634 0.732233 33.2322C0.263392 33.7011 0 34.337 0 35C0 35.663 0.263392 36.2989 0.732233 36.7678C1.20107 37.2366 1.83696 37.5 2.5 37.5H5V42.5H2.5C1.83696 42.5 1.20107 42.7634 0.732233 43.2322C0.263392 43.7011 0 44.337 0 45C0 45.663 0.263392 46.2989 0.732233 46.7678C1.20107 47.2366 1.83696 47.5 2.5 47.5H5V52.5H2.5C1.83696 52.5 1.20107 52.7634 0.732233 53.2322C0.263392 53.7011 0 54.337 0 55C0 55.663 0.263392 56.2989 0.732233 56.7678C1.20107 57.2366 1.83696 57.5 2.5 57.5H5V62.5H2.5C1.83696 62.5 1.20107 62.7634 0.732233 63.2322C0.263392 63.7011 0 64.337 0 65C0 65.663 0.263392 66.2989 0.732233 66.7678C1.20107 67.2366 1.83696 67.5 2.5 67.5H5.35C5.7989 69.2196 6.69798 70.7886 7.9547 72.0453C9.21142 73.302 10.7804 74.2011 12.5 74.65V77.5C12.5 78.163 12.7634 78.7989 13.2322 79.2678C13.7011 79.7366 14.337 80 15 80C15.663 80 16.2989 79.7366 16.7678 79.2678C17.2366 78.7989 17.5 78.163 17.5 77.5V75H22.5V77.5C22.5 78.163 22.7634 78.7989 23.2322 79.2678C23.7011 79.7366 24.337 80 25 80C25.663 80 26.2989 79.7366 26.7678 79.2678C27.2366 78.7989 27.5 78.163 27.5 77.5V75H32.5V77.5C32.5 78.163 32.7634 78.7989 33.2322 79.2678C33.7011 79.7366 34.337 80 35 80C35.663 80 36.2989 79.7366 36.7678 79.2678C37.2366 78.7989 37.5 78.163 37.5 77.5V75H42.5V77.5C42.5 78.163 42.7634 78.7989 43.2322 79.2678C43.7011 79.7366 44.337 80 45 80C45.663 80 46.2989 79.7366 46.7678 79.2678C47.2366 78.7989 47.5 78.163 47.5 77.5V75H52.5V77.5C52.5 78.163 52.7634 78.7989 53.2322 79.2678C53.7011 79.7366 54.337 80 55 80C55.663 80 56.2989 79.7366 56.7678 79.2678C57.2366 78.7989 57.5 78.163 57.5 77.5V75H62.5V77.5C62.5 78.163 62.7634 78.7989 63.2322 79.2678C63.7011 79.7366 64.337 80 65 80C65.663 80 66.2989 79.7366 66.7678 79.2678C67.2366 78.7989 67.5 78.163 67.5 77.5V74.65C69.2196 74.2011 70.7886 73.302 72.0453 72.0453C73.302 70.7886 74.2011 69.2196 74.65 67.5H77.5C78.163 67.5 78.7989 67.2366 79.2678 66.7678C79.7366 66.2989 80 65.663 80 65C80 64.337 79.7366 63.7011 79.2678 63.2322C78.7989 62.7634 78.163 62.5 77.5 62.5H75V57.5H77.5C78.163 57.5 78.7989 57.2366 79.2678 56.7678C79.7366 56.2989 80 55.663 80 55C80 54.337 79.7366 53.7011 79.2678 53.2322C78.7989 52.7634 78.163 52.5 77.5 52.5H75V47.5H77.5C78.163 47.5 78.7989 47.2366 79.2678 46.7678C79.7366 46.2989 80 45.663 80 45C80 44.337 79.7366 43.7011 79.2678 43.2322C78.7989 42.7634 78.163 42.5 77.5 42.5H75V37.5H77.5C78.163 37.5 78.7989 37.2366 79.2678 36.7678C79.7366 36.2989 80 35.663 80 35C80 34.337 79.7366 33.7011 79.2678 33.2322C78.7989 32.7634 78.163 32.5 77.5 32.5H75V27.5H77.5ZM65 70H15C13.6739 70 12.4021 69.4732 11.4645 68.5355C10.5268 67.5979 10 66.3261 10 65V15C10 13.6739 10.5268 12.4021 11.4645 11.4645C12.4021 10.5268 13.6739 10 15 10H65C66.3261 10 67.5979 10.5268 68.5355 11.4645C69.4732 12.4021 70 13.6739 70 15V65C70 66.3261 69.4732 67.5979 68.5355 68.5355C67.5979 69.4732 66.3261 70 65 70Z" fill="url(#paint1_linear_599_1589)"/>
<path d="M32.5 52.5002C31.837 52.5002 31.2011 52.2368 30.7323 51.768C30.2634 51.2991 30 50.6632 30 50.0002V30.0002C29.9983 29.5605 30.1125 29.1281 30.3312 28.7467C30.5499 28.3653 30.8654 28.0483 31.2457 27.8277C31.626 27.6071 32.0578 27.4907 32.4975 27.4902C32.9372 27.4898 33.3692 27.6053 33.75 27.8252L51.25 37.8252C51.6348 38.0432 51.9548 38.3594 52.1774 38.7415C52.4001 39.1236 52.5174 39.5579 52.5174 40.0002C52.5174 40.4424 52.4001 40.8767 52.1774 41.2588C51.9548 41.6409 51.6348 41.9571 51.25 42.1752C32.3 53.0002 33.45 52.5002 32.5 52.5002ZM35 34.3002V45.7002L45 40.0002L35 34.3002Z" fill="url(#paint2_linear_599_1589)"/>
</g>
<defs>
<linearGradient id="paint0_linear_599_1589" x1="40" y1="15" x2="40" y2="65" gradientUnits="userSpaceOnUse">
<stop stop-color="#843497"/>
<stop offset="1" stop-color="#1B1A42"/>
</linearGradient>
<linearGradient id="paint1_linear_599_1589" x1="40" y1="0" x2="40" y2="80" gradientUnits="userSpaceOnUse">
<stop stop-color="#843497"/>
<stop offset="1" stop-color="#1B1A42"/>
</linearGradient>
<linearGradient id="paint2_linear_599_1589" x1="41.2587" y1="27.4902" x2="41.2587" y2="52.5038" gradientUnits="userSpaceOnUse">
<stop stop-color="#843497"/>
<stop offset="1" stop-color="#1B1A42"/>
</linearGradient>
<clipPath id="clip0_599_1589">
<rect width="80" height="80" fill="white"/>
</clipPath>
</defs>
</svg>
