<svg width="80" height="80" viewBox="0 0 80 80" fill="none" xmlns="http://www.w3.org/2000/svg">
<g clip-path="url(#clip0_599_1625)">
<path d="M7.96875 48.4375H14.2188V54.6875H18.9062V4.6875H28.2812V9.37859C26.8806 10.1892 25.9375 11.7027 25.9375 13.4375V16.5625C25.9375 17.4255 26.637 18.125 27.5 18.125H33.75C34.613 18.125 35.3125 17.4255 35.3125 16.5625V13.4375C35.3125 11.7028 34.3694 10.1892 32.9688 9.37859V4.6875H47.0312V9.37859C45.6306 10.1892 44.6875 11.7027 44.6875 13.4375V16.5625C44.6875 17.4255 45.387 18.125 46.25 18.125H52.5C53.363 18.125 54.0625 17.4255 54.0625 16.5625V13.4375C54.0625 11.7028 53.1194 10.1892 51.7188 9.37859V4.6875H61.0938V54.6875H65.7812V48.4375H72.0312V54.6875H76.7188V2.34375C76.7188 1.04937 75.6694 0 74.375 0H5.625C4.33062 0 3.28125 1.04937 3.28125 2.34375V54.6875H7.96875V48.4375ZM65.7812 4.6875H72.0312V10.9375H65.7812V4.6875ZM65.7812 15.625H72.0312V21.875H65.7812V15.625ZM65.7812 26.5625H72.0312V32.8125H65.7812V26.5625ZM65.7812 37.5H72.0312V43.75H65.7812V37.5ZM7.96875 4.6875H14.2188V10.9375H7.96875V4.6875ZM7.96875 15.625H14.2188V21.875H7.96875V15.625ZM7.96875 26.5625H14.2188V32.8125H7.96875V26.5625ZM7.96875 37.5H14.2188V43.75H7.96875V37.5Z" fill="url(#paint0_linear_599_1625)"/>
<path d="M23.5938 38.2812H56.4062V54.6875H23.5938V38.2812Z" fill="url(#paint1_linear_599_1625)"/>
<path d="M52.8085 59.375H27.1917L22.2682 77.0266C21.8515 78.5206 22.9748 80 24.5257 80H55.4742C57.0251 80 58.1484 78.5205 57.7317 77.0266L52.8085 59.375Z" fill="url(#paint2_linear_599_1625)"/>
<path d="M76.875 59.375H57.6748L62.0329 75H77.6562C78.9506 75 80 73.9506 80 72.6562V62.5C80 60.7741 78.6009 59.375 76.875 59.375Z" fill="url(#paint3_linear_599_1625)"/>
<path d="M3.125 59.375C1.39906 59.375 0 60.7741 0 62.5V72.6562C0 73.9506 1.04937 75 2.34375 75H17.967L22.3252 59.375H3.125Z" fill="url(#paint4_linear_599_1625)"/>
</g>
<defs>
<linearGradient id="paint0_linear_599_1625" x1="40" y1="0" x2="40" y2="54.6875" gradientUnits="userSpaceOnUse">
<stop stop-color="#843497"/>
<stop offset="1" stop-color="#1B1A42"/>
</linearGradient>
<linearGradient id="paint1_linear_599_1625" x1="40" y1="38.2812" x2="40" y2="54.6875" gradientUnits="userSpaceOnUse">
<stop stop-color="#843497"/>
<stop offset="1" stop-color="#1B1A42"/>
</linearGradient>
<linearGradient id="paint2_linear_599_1625" x1="39.9999" y1="59.375" x2="39.9999" y2="80" gradientUnits="userSpaceOnUse">
<stop stop-color="#843497"/>
<stop offset="1" stop-color="#1B1A42"/>
</linearGradient>
<linearGradient id="paint3_linear_599_1625" x1="68.8374" y1="59.375" x2="68.8374" y2="75" gradientUnits="userSpaceOnUse">
<stop stop-color="#843497"/>
<stop offset="1" stop-color="#1B1A42"/>
</linearGradient>
<linearGradient id="paint4_linear_599_1625" x1="11.1626" y1="59.375" x2="11.1626" y2="75" gradientUnits="userSpaceOnUse">
<stop stop-color="#843497"/>
<stop offset="1" stop-color="#1B1A42"/>
</linearGradient>
<clipPath id="clip0_599_1625">
<rect width="80" height="80" fill="white"/>
</clipPath>
</defs>
</svg>
