<svg width="80" height="80" viewBox="0 0 80 80" fill="none" xmlns="http://www.w3.org/2000/svg">
<path d="M36.3364 32C35.7778 32 35.3331 32.1158 35.0504 32.3348C33.7033 33.3786 32.8168 37.2045 33.0322 41.0447C33.1915 43.8854 33.9492 46.1157 34.9625 46.7267C35.2592 46.9055 35.6929 47 36.2169 47H36.2176C38.0205 47 40.734 45.925 43.1312 44.2611C45.4814 42.6295 47 40.7847 47 39.5608C47 36.8756 40.1234 32 36.3364 32Z" fill="#77EA44"/>
<path d="M79.5223 13.5294C79.2214 13.2996 78.8298 13.2242 78.4659 13.325C67.1298 16.4528 53.8284 18.106 40 18.106C26.1714 18.106 12.87 16.4527 1.53422 13.325C1.17016 13.2247 0.778906 13.2999 0.477656 13.5294C0.176719 13.7591 0 14.116 0 14.4947V64.4047C0 64.7836 0.176719 65.1406 0.477656 65.3699C0.778906 65.5999 1.17 65.6753 1.53422 65.5746C12.87 62.4467 26.1714 60.7935 40 60.7935C53.8284 60.7935 67.1298 62.4469 78.4659 65.5746C78.5719 65.6039 78.6802 65.618 78.788 65.618C79.0505 65.618 79.3091 65.5327 79.5225 65.3697C79.8234 65.1403 80 64.7835 80 64.4046V14.4947C79.9998 14.116 79.8233 13.7591 79.5223 13.5294ZM45.5072 47.5975C41.9005 50.0303 37.8678 51.5414 34.9833 51.5414C34.9827 51.5414 34.9825 51.5414 34.9819 51.5414C33.8411 51.5414 32.8697 51.311 32.0945 50.8567C29.0859 49.0944 28.4655 43.7824 28.3383 41.5802C28.0569 36.7047 29.0758 30.4619 31.9781 28.2764C32.7878 27.6669 33.8517 27.3578 35.1408 27.3578C38.5291 27.3578 42.7492 29.4544 45.5691 31.4164C47.4148 32.7008 51.7078 36.0624 51.7078 39.528C51.7078 43.0367 47.3716 46.3402 45.5072 47.5975Z" fill="#77EA44"/>
</svg>
