<svg width="39" height="38" viewBox="0 0 39 38" fill="none" xmlns="http://www.w3.org/2000/svg">
<path d="M37.103 19.0508C37.103 17.7115 36.9828 16.4236 36.7595 15.1873H18.9698V22.5023H29.1354C28.6889 24.8548 27.3495 26.8467 25.3405 28.1861V32.9426H31.4707C35.0424 29.6457 37.103 24.8033 37.103 19.0508Z" fill="#4285F4"/>
<path d="M19.1677 37.8156C24.2677 37.8156 28.5434 36.1328 31.6686 33.248L25.5383 28.4915C23.8555 29.6248 21.7091 30.3117 19.1677 30.3117C14.2567 30.3117 10.084 26.9976 8.59007 22.533H2.3053V27.4097C5.41334 33.5742 11.784 37.8156 19.1677 37.8156Z" fill="#34A853"/>
<path d="M8.58982 22.5158C8.21205 21.3825 7.98882 20.1805 7.98882 18.927C7.98882 17.6735 8.21205 16.4715 8.58982 15.3381V10.4614H2.30505C1.01718 13.0028 0.278809 15.8705 0.278809 18.927C0.278809 21.9835 1.01718 24.8512 2.30505 27.3925L7.19893 23.5805L8.58982 22.5158Z" fill="#FBBC05"/>
<path d="M19.1677 7.55945C21.9495 7.55945 24.4222 8.52106 26.3969 10.3756L31.806 4.96655C28.5262 1.91002 24.2677 0.0383301 19.1677 0.0383301C11.784 0.0383301 5.41334 4.27969 2.3053 10.4614L8.59007 15.3381C10.084 10.8736 14.2567 7.55945 19.1677 7.55945Z" fill="#EA4335"/>
</svg>
