<svg width="301" height="51" viewBox="0 0 301 51" fill="none" xmlns="http://www.w3.org/2000/svg">
<g opacity="0.88">
<path d="M58.6717 29.6796C58.6717 36.1523 53.608 40.922 47.3938 40.922C41.1796 40.922 36.116 36.1523 36.116 29.6796C36.116 23.1613 41.1796 18.4373 47.3938 18.4373C53.608 18.4373 58.6717 23.1613 58.6717 29.6796ZM53.7347 29.6796C53.7347 25.6348 50.8 22.8673 47.3938 22.8673C43.9876 22.8673 41.0529 25.6348 41.0529 29.6796C41.0529 33.6839 43.9876 36.4919 47.3938 36.4919C50.8 36.4919 53.7347 33.6788 53.7347 29.6796Z" fill="#E63023"/>
<path d="M82.9988 29.6796C82.9988 36.1523 77.9352 40.922 71.721 40.922C65.5067 40.922 60.4431 36.1523 60.4431 29.6796C60.4431 23.1663 65.5067 18.4373 71.721 18.4373C77.9352 18.4373 82.9988 23.1613 82.9988 29.6796ZM78.0619 29.6796C78.0619 25.6348 75.1271 22.8673 71.721 22.8673C68.3148 22.8673 65.38 25.6348 65.38 29.6796C65.38 33.6839 68.3148 36.4919 71.721 36.4919C75.1271 36.4919 78.0619 33.6788 78.0619 29.6796Z" fill="#FBB001"/>
<path d="M106.314 19.1165V39.3C106.314 47.6025 101.417 50.9935 95.6288 50.9935C90.1799 50.9935 86.9005 47.3491 85.6637 44.3687L89.962 42.5794C90.7273 44.4092 92.6027 46.5685 95.6237 46.5685C99.3289 46.5685 101.625 44.2825 101.625 39.9792V38.3623H101.453C100.348 39.7258 98.2189 40.9169 95.5324 40.9169C89.9113 40.9169 84.7615 36.0206 84.7615 29.7202C84.7615 23.3742 89.9113 18.4373 95.5324 18.4373C98.2138 18.4373 100.343 19.6284 101.453 20.9513H101.625V19.1215H106.314V19.1165ZM101.975 29.7202C101.975 25.7615 99.334 22.8673 95.9734 22.8673C92.5673 22.8673 89.7136 25.7615 89.7136 29.7202C89.7136 33.6383 92.5673 36.4919 95.9734 36.4919C99.334 36.4919 101.975 33.6383 101.975 29.7202Z" fill="#2F73F1"/>
<path d="M114.045 7.28589V40.2324H109.23V7.28589H114.045Z" fill="#239A40"/>
<path d="M132.806 33.3792L136.638 35.9338C135.401 37.7636 132.421 40.9164 127.271 40.9164C120.884 40.9164 116.115 35.9795 116.115 29.674C116.115 22.9884 120.925 18.4316 126.718 18.4316C132.553 18.4316 135.406 23.0746 136.339 25.5836L136.851 26.8609L121.822 33.0852C122.973 35.3408 124.762 36.4914 127.271 36.4914C129.785 36.4914 131.529 35.2546 132.806 33.3792ZM121.011 29.3344L131.057 25.1629C130.505 23.7588 128.842 22.7806 126.886 22.7806C124.377 22.7806 120.884 24.9956 121.011 29.3344Z" fill="#E73026"/>
<path d="M17.8863 26.7549V21.9853H33.9592C34.1163 22.8165 34.1974 23.7998 34.1974 24.8643C34.1974 28.4428 33.2191 32.8677 30.0664 36.0205C26.9999 39.2137 23.0818 40.9168 17.8914 40.9168C8.27103 40.9168 0.181396 33.0806 0.181396 23.4602C0.181396 13.8399 8.27103 6.00366 17.8914 6.00366C23.2135 6.00366 27.0049 8.09196 29.8535 10.8139L26.4879 14.1795C24.4452 12.2635 21.6777 10.7733 17.8863 10.7733C10.8611 10.7733 5.36667 16.435 5.36667 23.4602C5.36667 30.4855 10.8611 36.1472 17.8863 36.1472C22.4431 36.1472 25.0383 34.3174 26.7008 32.6549C28.0491 31.3066 28.9361 29.3805 29.2858 26.7498L17.8863 26.7549Z" fill="#3074F1"/>
</g>
<path d="M161.819 3.7763C161.874 3.84383 161.884 3.93712 161.911 4.02027L164.086 10.7157C164.113 10.7992 164.142 10.8859 164.204 10.9474C164.247 10.9889 164.297 11.0181 164.348 11.0181H171.648C171.913 11.0181 172.002 11.3278 171.781 11.4605L166.015 15.6653C165.936 15.7229 165.838 15.7701 165.805 15.862C165.802 15.8707 165.799 15.8795 165.797 15.8885C165.777 15.974 165.822 16.0592 165.849 16.1427L168.064 22.9631C168.153 23.1843 167.888 23.4055 167.666 23.2285L161.901 19.0237C161.822 18.9661 161.738 18.9072 161.64 18.9042C161.632 18.9039 161.623 18.9039 161.615 18.9042C161.517 18.9072 161.433 18.9661 161.354 19.0237L155.589 23.2285C155.412 23.3612 155.102 23.1843 155.19 22.9631L157.406 16.1427C157.433 16.0592 157.478 15.974 157.458 15.8885C157.456 15.8795 157.453 15.8707 157.45 15.862C157.417 15.7701 157.319 15.7229 157.24 15.6653L151.474 11.4605C151.297 11.3278 151.386 11.0181 151.607 11.0181H158.907C158.915 11.0181 158.924 11.0173 158.933 11.0157C159.115 10.9846 159.157 10.7517 159.214 10.5761L161.384 3.89537C161.456 3.67851 161.706 3.63882 161.819 3.7763Z" fill="#FBBA20"/>
<path d="M184.403 3.7763C184.458 3.84383 184.468 3.93712 184.495 4.02027L186.67 10.7157C186.697 10.7992 186.725 10.8859 186.788 10.9474C186.83 10.9889 186.881 11.0181 186.932 11.0181H194.232C194.497 11.0181 194.586 11.3278 194.364 11.4605L188.599 15.6653C188.52 15.7229 188.422 15.7701 188.389 15.862C188.385 15.8707 188.383 15.8795 188.381 15.8885C188.361 15.974 188.406 16.0592 188.433 16.1427L190.648 22.9631C190.737 23.1843 190.471 23.4055 190.25 23.2285L184.485 19.0237C184.406 18.9661 184.322 18.9072 184.224 18.9042C184.216 18.9039 184.207 18.9039 184.198 18.9042C184.101 18.9072 184.017 18.9661 183.938 19.0237L178.172 23.2285C177.995 23.3612 177.686 23.1843 177.774 22.9631L179.99 16.1427C180.017 16.0592 180.062 15.974 180.042 15.8885C180.04 15.8795 180.037 15.8707 180.034 15.862C180.001 15.7701 179.902 15.7229 179.823 15.6653L174.058 11.4605C173.881 11.3278 173.97 11.0181 174.191 11.0181H181.49C181.499 11.0181 181.508 11.0173 181.517 11.0157C181.699 10.9846 181.741 10.7517 181.798 10.5761L183.968 3.89537C184.04 3.67851 184.29 3.63882 184.403 3.7763Z" fill="#FBBA20"/>
<path d="M206.986 3.7763C207.042 3.84383 207.052 3.93712 207.079 4.02027L209.254 10.7157C209.281 10.7992 209.309 10.8859 209.372 10.9474C209.414 10.9889 209.465 11.0181 209.516 11.0181H216.815C217.081 11.0181 217.169 11.3278 216.948 11.4605L211.183 15.6653C211.104 15.7229 211.006 15.7701 210.972 15.862C210.969 15.8707 210.966 15.8795 210.964 15.8885C210.944 15.974 210.989 16.0592 211.016 16.1427L213.232 22.9631C213.32 23.1843 213.055 23.4055 212.834 23.2285L207.068 19.0237C206.989 18.9661 206.905 18.9072 206.808 18.9042C206.799 18.9039 206.791 18.9039 206.782 18.9042C206.684 18.9072 206.6 18.9661 206.521 19.0237L200.756 23.2285C200.579 23.3612 200.269 23.1843 200.358 22.9631L202.573 16.1427C202.6 16.0592 202.646 15.974 202.625 15.8885C202.623 15.8795 202.621 15.8707 202.618 15.862C202.584 15.7701 202.486 15.7229 202.407 15.6653L196.642 11.4605C196.465 11.3278 196.553 11.0181 196.774 11.0181H204.074C204.083 11.0181 204.092 11.0173 204.101 11.0157C204.283 10.9846 204.324 10.7517 204.381 10.5761L206.552 3.89537C206.624 3.67851 206.873 3.63882 206.986 3.7763Z" fill="#FBBA20"/>
<path d="M229.57 3.7763C229.625 3.84383 229.635 3.93712 229.662 4.02027L231.837 10.7157C231.864 10.7992 231.893 10.8859 231.955 10.9474C231.998 10.9889 232.048 11.0181 232.099 11.0181H239.399C239.664 11.0181 239.753 11.3278 239.532 11.4605L233.766 15.6653C233.687 15.7229 233.589 15.7701 233.556 15.862C233.553 15.8707 233.55 15.8795 233.548 15.8885C233.528 15.974 233.573 16.0592 233.6 16.1427L235.815 22.9631C235.904 23.1843 235.638 23.4055 235.417 23.2285L229.652 19.0237C229.573 18.9661 229.489 18.9072 229.391 18.9042C229.383 18.9039 229.374 18.9039 229.366 18.9042C229.268 18.9072 229.184 18.9661 229.105 19.0237L223.34 23.2285C223.163 23.3612 222.853 23.1843 222.941 22.9631L225.157 16.1427C225.184 16.0592 225.229 15.974 225.209 15.8885C225.207 15.8795 225.204 15.8707 225.201 15.862C225.168 15.7701 225.07 15.7229 224.991 15.6653L219.225 11.4605C219.048 11.3278 219.137 11.0181 219.358 11.0181H226.658C226.666 11.0181 226.675 11.0173 226.684 11.0157C226.866 10.9846 226.908 10.7517 226.965 10.5761L229.135 3.89537C229.207 3.67851 229.457 3.63882 229.57 3.7763Z" fill="#FBBA20"/>
<path d="M252.154 3.7763C252.209 3.84383 252.219 3.93712 252.246 4.02027L254.421 10.7157C254.448 10.7992 254.476 10.8859 254.539 10.9474C254.581 10.9889 254.632 11.0181 254.683 11.0181H261.983C262.248 11.0181 262.337 11.3278 262.115 11.4605L256.35 15.6653C256.271 15.7229 256.173 15.7701 256.139 15.862C256.136 15.8707 256.134 15.8795 256.132 15.8885C256.111 15.974 256.157 16.0592 256.184 16.1427L258.399 22.9631C258.488 23.1843 258.222 23.4055 258.001 23.2285L252.236 19.0237C252.157 18.9661 252.073 18.9072 251.975 18.9042C251.966 18.9039 251.958 18.9039 251.949 18.9042C251.852 18.9072 251.768 18.9661 251.689 19.0237L245.923 23.2285C245.746 23.3612 245.437 23.1843 245.525 22.9631L247.741 16.1427C247.768 16.0592 247.813 15.974 247.793 15.8885C247.791 15.8795 247.788 15.8707 247.785 15.862C247.752 15.7701 247.653 15.7229 247.574 15.6653L241.809 11.4605C241.632 11.3278 241.721 11.0181 241.942 11.0181H249.241C249.25 11.0181 249.259 11.0173 249.268 11.0157C249.45 10.9846 249.492 10.7517 249.549 10.5761L251.719 3.89537C251.791 3.67851 252.041 3.63882 252.154 3.7763Z" fill="#FBBA20"/>
<path d="M156.942 33.5351C157.87 33.5351 158.685 33.6936 159.389 34.0104C160.093 34.3273 160.633 34.7732 161.009 35.3482C161.396 35.9115 161.589 36.551 161.589 37.2668C161.589 38.1 161.39 38.8335 160.991 39.4671C160.592 40.1008 160.029 40.5937 159.301 40.9457C158.574 41.286 157.729 41.4562 156.766 41.4562C155.992 41.4562 155.182 41.3271 154.337 41.0689C153.504 40.799 152.765 40.4411 152.119 39.9952L153.052 38.147C153.58 38.5577 154.144 38.8804 154.742 39.1151C155.341 39.3381 155.939 39.4495 156.538 39.4495C157.312 39.4495 157.922 39.2735 158.368 38.9215C158.826 38.5577 159.055 38.0648 159.055 37.4429C159.055 36.8444 158.832 36.3809 158.386 36.0523C157.94 35.7237 157.277 35.5594 156.397 35.5594C155.974 35.5594 155.417 35.577 154.725 35.6122C154.032 35.6357 153.498 35.665 153.123 35.7002V29.0289H161.044V31.0884H155.305V33.5351H156.942ZM175.869 32.1974C175.235 31.8101 174.584 31.5109 173.915 31.2996C173.258 31.0884 172.677 30.9828 172.173 30.9828C171.609 30.9828 171.163 31.0884 170.835 31.2996C170.506 31.5109 170.342 31.8043 170.342 32.1798C170.342 32.5201 170.453 32.8076 170.676 33.0423C170.911 33.2652 171.199 33.453 171.539 33.6056C171.891 33.7464 172.366 33.9048 172.965 34.0808C173.798 34.3273 174.479 34.5737 175.007 34.8201C175.546 35.0666 176.004 35.4303 176.38 35.9115C176.755 36.3926 176.943 37.0263 176.943 37.8125C176.943 38.5635 176.737 39.2207 176.327 39.784C175.928 40.3355 175.37 40.758 174.655 41.0513C173.95 41.3447 173.141 41.4914 172.225 41.4914C171.263 41.4914 170.324 41.3154 169.409 40.9633C168.494 40.5996 167.696 40.1184 167.015 39.5199L168.001 37.5133C168.623 38.0883 169.321 38.5401 170.096 38.8687C170.87 39.1972 171.592 39.3615 172.261 39.3615C172.918 39.3615 173.434 39.2383 173.81 38.9919C174.185 38.7337 174.373 38.3875 174.373 37.9533C174.373 37.6013 174.256 37.3138 174.021 37.0908C173.798 36.8561 173.51 36.6684 173.158 36.5275C172.806 36.3867 172.325 36.2283 171.715 36.0523C170.882 35.8058 170.201 35.5653 169.673 35.3306C169.145 35.0959 168.693 34.7438 168.318 34.2744C167.942 33.7933 167.754 33.1655 167.754 32.391C167.754 31.6752 167.942 31.0532 168.318 30.5251C168.705 29.9853 169.245 29.5688 169.937 29.2754C170.641 28.982 171.451 28.8353 172.366 28.8353C173.164 28.8353 173.95 28.9527 174.725 29.1874C175.511 29.4221 176.209 29.7389 176.82 30.1379L175.869 32.1974ZM177.804 29.0289H187.855V31.1236H184.018V41.3506H181.641V31.1236H177.804V29.0289ZM197.389 41.3506L196.297 38.7454H190.277L189.186 41.3506H186.739L192.143 29.0289H194.59L199.923 41.3506H197.389ZM191.122 36.7212H195.452L193.305 31.5461L191.122 36.7212ZM209.131 41.3506L207.001 37.7069C206.907 37.7186 206.76 37.7245 206.561 37.7245H203.779V41.3506H201.421V29.0289H206.561C208.157 29.0289 209.389 29.3986 210.257 30.1379C211.125 30.8772 211.56 31.9216 211.56 33.2711C211.56 34.2334 211.348 35.0548 210.926 35.7354C210.515 36.4161 209.911 36.9265 209.113 37.2668L211.824 41.3506H209.131ZM203.779 35.6474H206.561C207.452 35.6474 208.133 35.4538 208.602 35.0666C209.072 34.6793 209.307 34.1043 209.307 33.3415C209.307 32.5905 209.072 32.0272 208.602 31.6517C208.133 31.2762 207.452 31.0884 206.561 31.0884H203.779V35.6474ZM226.166 41.3506L224.036 37.7069C223.942 37.7186 223.795 37.7245 223.596 37.7245H220.814V41.3506H218.456V29.0289H223.596C225.192 29.0289 226.424 29.3986 227.292 30.1379C228.161 30.8772 228.595 31.9216 228.595 33.2711C228.595 34.2334 228.383 35.0548 227.961 35.7354C227.55 36.4161 226.946 36.9265 226.148 37.2668L228.859 41.3506H226.166ZM220.814 35.6474H223.596C224.487 35.6474 225.168 35.4538 225.638 35.0666C226.107 34.6793 226.342 34.1043 226.342 33.3415C226.342 32.5905 226.107 32.0272 225.638 31.6517C225.168 31.2762 224.487 31.0884 223.596 31.0884H220.814V35.6474ZM231.176 29.0289H240.206V31.0884H233.535V34.1336H239.52V36.1931H233.535V39.2911H240.417V41.3506H231.176V29.0289ZM241.335 29.0289H243.87L247.496 38.7278L251.157 29.0289H253.586L248.658 41.3506H246.211L241.335 29.0289ZM255.156 29.0289H257.515V41.3506H255.156V29.0289ZM260.536 29.0289H269.566V31.0884H262.895V34.1336H268.88V36.1931H262.895V39.2911H269.778V41.3506H260.536V29.0289ZM287.118 29.0289H289.565L285.393 41.3506H282.946L280.13 32.0037L277.261 41.3506H274.849L270.695 29.0289H273.23L276.134 38.7982L279.021 29.0289H281.345L284.249 38.8335L287.118 29.0289ZM298.862 32.1974C298.228 31.8101 297.577 31.5109 296.908 31.2996C296.251 31.0884 295.67 30.9828 295.166 30.9828C294.602 30.9828 294.156 31.0884 293.828 31.2996C293.499 31.5109 293.335 31.8043 293.335 32.1798C293.335 32.5201 293.446 32.8076 293.669 33.0423C293.904 33.2652 294.192 33.453 294.532 33.6056C294.884 33.7464 295.359 33.9048 295.958 34.0808C296.791 34.3273 297.471 34.5737 297.999 34.8201C298.539 35.0666 298.997 35.4303 299.372 35.9115C299.748 36.3926 299.936 37.0263 299.936 37.8125C299.936 38.5635 299.73 39.2207 299.32 39.784C298.921 40.3355 298.363 40.758 297.647 41.0513C296.943 41.3447 296.134 41.4914 295.218 41.4914C294.256 41.4914 293.317 41.3154 292.402 40.9633C291.487 40.5996 290.689 40.1184 290.008 39.5199L290.994 37.5133C291.616 38.0883 292.314 38.5401 293.088 38.8687C293.863 39.1972 294.585 39.3615 295.254 39.3615C295.911 39.3615 296.427 39.2383 296.803 38.9919C297.178 38.7337 297.366 38.3875 297.366 37.9533C297.366 37.6013 297.248 37.3138 297.014 37.0908C296.791 36.8561 296.503 36.6684 296.151 36.5275C295.799 36.3867 295.318 36.2283 294.708 36.0523C293.875 35.8058 293.194 35.5653 292.666 35.3306C292.138 35.0959 291.686 34.7438 291.311 34.2744C290.935 33.7933 290.747 33.1655 290.747 32.391C290.747 31.6752 290.935 31.0532 291.311 30.5251C291.698 29.9853 292.238 29.5688 292.93 29.2754C293.634 28.982 294.444 28.8353 295.359 28.8353C296.157 28.8353 296.943 28.9527 297.718 29.1874C298.504 29.4221 299.202 29.7389 299.813 30.1379L298.862 32.1974Z" fill="#1F1F1F"/>
</svg>
