<svg width="38" height="38" viewBox="0 0 38 38" fill="none" xmlns="http://www.w3.org/2000/svg">
<path d="M32.1413 3.57178H5.85656C5.70502 3.57178 5.55968 3.63198 5.45252 3.73914C5.34536 3.8463 5.28516 3.99164 5.28516 4.14318V29.2851C5.28516 29.4366 5.34536 29.5819 5.45252 29.6891C5.55968 29.7963 5.70502 29.8565 5.85656 29.8565H32.1413C32.2928 29.8565 32.4381 29.7963 32.5453 29.6891C32.6525 29.5819 32.7127 29.4366 32.7127 29.2851V4.14318C32.7127 3.99164 32.6525 3.8463 32.5453 3.73914C32.4381 3.63198 32.2928 3.57178 32.1413 3.57178ZM19.5703 4.71459V28.7137H18.4275V4.71459H19.5703ZM6.42797 4.71459H17.2847V28.7137H6.42797V4.71459ZM31.5698 28.7137H20.7131V4.71459H31.5698V28.7137Z" fill="white"/>
<path d="M3 1.85754V31.5707C3 31.7222 3.0602 31.8675 3.16736 31.9747C3.27452 32.0819 3.41986 32.1421 3.57141 32.1421H34.4273C34.5789 32.1421 34.7242 32.0819 34.8314 31.9747C34.9385 31.8675 34.9987 31.7222 34.9987 31.5707V1.85754C34.9987 1.70599 34.9385 1.56065 34.8314 1.45349C34.7242 1.34633 34.5789 1.28613 34.4273 1.28613H3.57141C3.41986 1.28613 3.27452 1.34633 3.16736 1.45349C3.0602 1.56065 3 1.70599 3 1.85754ZM4.14281 2.42895H33.8559V30.9993H4.14281V2.42895Z" fill="white"/>
<path d="M22.0215 16.3105L29.4487 8.8833L30.2567 9.69126L22.8295 17.1185L22.0215 16.3105Z" fill="white"/>
<path d="M22.0391 23.7124L29.4593 16.8482L30.2353 17.687L22.815 24.5512L22.0391 23.7124Z" fill="white"/>
<path d="M7.73828 16.3096L15.1655 8.88232L15.9735 9.69029L8.54625 17.1175L7.73828 16.3096Z" fill="white"/>
<path d="M7.75977 23.7158L15.18 16.8516L15.956 17.6904L8.53574 24.5546L7.75977 23.7158Z" fill="white"/>
<path d="M36.1429 33.2852H1.85852C1.70697 33.2852 1.56163 33.3454 1.45447 33.4525C1.34731 33.5597 1.28711 33.705 1.28711 33.8566V36.1422C1.28711 36.2937 1.34731 36.4391 1.45447 36.5462C1.56163 36.6534 1.70697 36.7136 1.85852 36.7136H36.1429C36.2944 36.7136 36.4398 36.6534 36.5469 36.5462C36.6541 36.4391 36.7143 36.2937 36.7143 36.1422V33.8566C36.7143 33.705 36.6541 33.5597 36.5469 33.4525C36.4398 33.3454 36.2944 33.2852 36.1429 33.2852ZM35.5715 35.5708H2.42992V34.428H35.5715V35.5708Z" fill="white"/>
</svg>
