<svg width="80" height="80" viewBox="0 0 80 80" fill="none" xmlns="http://www.w3.org/2000/svg">
<path d="M47.1362 31.2272H13.8637C9.27699 31.2272 5.54551 27.4957 5.54551 22.909C5.54551 18.3224 9.27699 14.5909 13.8637 14.5909H27.7273V17.3637C27.7273 18.895 28.9688 20.1364 30.5001 20.1364H47.1363C48.6677 20.1364 49.9091 18.895 49.9091 17.3637V14.5909H58.2272C59.7586 14.5909 61 13.3495 61 11.8181C61 10.2868 59.7586 9.04539 58.2272 9.04539H49.9091V6.27275C49.909 4.74144 48.6675 3.5 47.1362 3.5H30.4999C28.9686 3.5 27.7272 4.74144 27.7272 6.27275V9.04551H13.8637C6.21925 9.04539 0 15.2646 0 22.909C0 30.5534 6.21925 36.7727 13.8637 36.7727H47.1363C51.7231 36.7727 55.4545 40.5044 55.4545 45.0908C55.4545 49.6773 51.7231 53.409 47.1363 53.409H33.2727V50.6362C33.2727 49.1049 32.0313 47.8635 30.4999 47.8635H13.8637C12.3323 47.8635 11.0909 49.1049 11.0909 50.6362V53.409H2.77275C1.24144 53.409 0 54.6504 0 56.1817C0 57.7131 1.24144 58.9545 2.77275 58.9545H11.0909V61.7272C11.0909 63.2586 12.3323 64.5 13.8637 64.5H30.4999C32.0313 64.5 33.2727 63.2586 33.2727 61.7272V58.9545H47.1363C54.7808 58.9545 61 52.7352 61 45.0908C61 37.4464 54.7806 31.2272 47.1362 31.2272Z" fill="url(#paint0_linear_599_2090)"/>
<defs>
<linearGradient id="paint0_linear_599_2090" x1="30.5" y1="3.5" x2="30.5" y2="64.5" gradientUnits="userSpaceOnUse">
<stop stop-color="#843497"/>
<stop offset="1" stop-color="#1B1A42"/>
</linearGradient>
</defs>
</svg>
