<svg width="80" height="80" viewBox="0 0 80 80" fill="none" xmlns="http://www.w3.org/2000/svg">
<path d="M19.4502 45.8667C18.8303 45.2757 18.0066 44.946 17.1502 44.946C16.2937 44.946 15.4701 45.2757 14.8502 45.8667L10.6835 50C8.57672 52.1229 7.39448 54.9925 7.39448 57.9833C7.39448 60.9742 8.57672 63.8438 10.6835 65.9667V72.6334H7.35017C6.86605 72.535 6.36614 72.5456 5.88658 72.6642C5.40703 72.7828 4.95983 73.0065 4.57734 73.3191C4.19485 73.6317 3.88663 74.0255 3.67497 74.4718C3.46332 74.9182 3.35352 75.406 3.35352 75.9C3.35352 76.394 3.46332 76.8818 3.67497 77.3282C3.88663 77.7746 4.19485 78.1683 4.57734 78.4809C4.95983 78.7936 5.40703 79.0173 5.88658 79.1359C6.36614 79.2545 6.86605 79.265 7.35017 79.1667H20.4002C20.8843 79.265 21.3842 79.2545 21.8638 79.1359C22.3433 79.0173 22.7905 78.7936 23.173 78.4809C23.5555 78.1683 23.8637 77.7746 24.0754 77.3282C24.287 76.8818 24.3968 76.394 24.3968 75.9C24.3968 75.406 24.287 74.9182 24.0754 74.4718C23.8637 74.0255 23.5555 73.6317 23.173 73.3191C22.7905 73.0065 22.3433 72.7828 21.8638 72.6642C21.3842 72.5456 20.8843 72.535 20.4002 72.6334H17.0668V69.3C17.58 69.3748 18.0983 69.4082 18.6168 69.4C20.1077 69.4059 21.5847 69.1141 22.9613 68.5417C24.3379 67.9694 25.5864 67.1279 26.6335 66.0667L30.8002 61.9C31.1045 61.5993 31.3462 61.2411 31.5111 60.8463C31.676 60.4515 31.761 60.0279 31.761 59.6C31.761 59.1721 31.676 58.7485 31.5111 58.3537C31.3462 57.9589 31.1045 57.6007 30.8002 57.3L19.4502 45.8667Z" fill="#77EA44"/>
<path d="M75.9001 22.0502C75.8957 16.4245 73.659 11.0305 69.681 7.05259C65.7031 3.07465 60.3091 0.83791 54.6835 0.833496H53.9168C50.0959 0.848438 46.3443 1.8545 43.0286 3.75336C39.7129 5.65221 36.9466 8.37887 35.0001 11.6668L19.2168 38.3335C18.8781 38.6977 18.6251 39.1331 18.4765 39.6077C18.3279 40.0823 18.2874 40.5842 18.3579 41.0766C18.4285 41.5689 18.6083 42.0392 18.8843 42.453C19.1602 42.8668 19.5252 43.2136 19.9526 43.468C20.38 43.7224 20.8589 43.8779 21.3542 43.9232C21.8495 43.9685 22.3486 43.9023 22.8151 43.7296C23.2815 43.5569 23.7033 43.282 24.0497 42.9251C24.3961 42.5681 24.6582 42.1382 24.8168 41.6668L33.9001 26.3335C34.7394 30.4032 36.7525 34.1379 39.6908 37.0762C42.629 40.0145 46.3637 42.0276 50.4335 42.8668L35.1001 51.9502C34.532 52.3432 34.1 52.9031 33.8639 53.5524C33.6278 54.2017 33.5993 54.9083 33.7824 55.5745C33.9654 56.2407 34.3509 56.8335 34.8855 57.2711C35.4202 57.7086 36.0776 57.9692 36.7668 58.0168C37.3522 58.0158 37.9271 57.8606 38.4335 57.5668L65.1001 41.7502C68.3845 39.8094 71.1053 37.0449 72.9936 33.7301C74.8819 30.4153 75.8723 26.6651 75.8668 22.8502C75.8668 22.7168 75.8668 22.5835 75.8668 22.4502C75.8668 22.3168 75.9001 22.1835 75.9001 22.0502ZM40.0001 22.0502C40.0075 18.2228 41.5074 14.5492 44.1809 11.8103C46.8544 9.07143 50.4907 7.4833 54.3168 7.3835C58.2631 7.48473 62.0199 9.09759 64.8113 11.889C67.6027 14.6804 69.2156 18.4372 69.3168 22.3835C69.0598 26.1235 67.382 29.6236 64.6273 32.1663C61.8726 34.709 58.2497 36.1018 54.5011 36.0592C50.7525 36.0166 47.1622 34.5417 44.466 31.9371C41.7699 29.3324 40.1721 25.795 40.0001 22.0502Z" fill="#77EA44"/>
</svg>
