<svg width="80" height="80" viewBox="0 0 80 80" fill="none" xmlns="http://www.w3.org/2000/svg">
<path d="M60.709 0H13.2909C5.96206 0 0 5.96206 0 13.2909V60.7089C0 68.0379 5.96206 74 13.2909 74H60.709C68.0379 74 74 68.0379 74 60.709V13.2909C74 5.96206 68.0379 0 60.709 0ZM62.5372 57.7491H38.8209C36.7365 63.9191 27.9802 63.9285 25.8928 57.7491H11.4628C8.58342 57.7491 8.5827 53.3961 11.4628 53.3961H25.8928C27.9771 47.226 36.7335 47.2166 38.8209 53.3961H62.5372C65.4166 53.3961 65.4174 57.7491 62.5372 57.7491ZM62.5372 39.1765H57.3935C55.3091 45.3465 46.5528 45.3559 44.4652 39.1765H11.4628C8.58342 39.1765 8.5827 34.8235 11.4628 34.8235H44.4653C46.5496 28.6535 55.306 28.6441 57.3936 34.8235H62.5374C65.4166 34.8235 65.4174 39.1765 62.5372 39.1765ZM62.5372 20.6039H29.5347C27.4502 26.774 18.694 26.7834 16.6065 20.6039H11.4628C8.58342 20.6039 8.5827 16.2509 11.4628 16.2509H16.6065C18.6908 10.0809 27.4472 10.0715 29.5347 16.2509H62.5372C65.4166 16.2509 65.4174 20.6039 62.5372 20.6039Z" fill="#77EA44"/>
<path d="M32.3573 53.1057C29.0936 53.1057 29.0953 58.039 32.3573 58.039C35.6208 58.0391 35.619 53.1057 32.3573 53.1057Z" fill="#77EA44"/>
<path d="M23.0711 15.9607C19.8075 15.9607 19.8092 20.894 23.0711 20.894C26.3346 20.8941 26.3329 15.9607 23.0711 15.9607Z" fill="#77EA44"/>
<path d="M50.9295 34.5332C47.6659 34.5332 47.6676 39.4665 50.9295 39.4665C54.1932 39.4666 54.1914 34.5332 50.9295 34.5332Z" fill="#77EA44"/>
</svg>
