<svg width="80" height="80" viewBox="0 0 80 80" fill="none" xmlns="http://www.w3.org/2000/svg">
<g clip-path="url(#clip0_622_1589)">
<path d="M75.2699 62.3452L71.2104 60.0015C70.0894 59.3541 68.656 59.7383 68.0088 60.8593C67.3614 61.9804 67.7457 63.4138 68.8666 64.0608L72.9261 66.4046C73.2952 66.6177 73.6982 66.719 74.0958 66.719C74.9058 66.719 75.6936 66.2987 76.1277 65.5468C76.7749 64.4257 76.3907 62.9922 75.2699 62.3452Z" fill="url(#paint0_linear_622_1589)"/>
<path d="M64.0614 68.8663C63.414 67.7452 61.9807 67.3614 60.8598 68.0084C59.7387 68.6556 59.3546 70.0891 60.002 71.21L62.3457 75.2694C62.7798 76.0213 63.5676 76.4416 64.3776 76.4416C64.7753 76.4416 65.1782 76.3403 65.5473 76.1272C66.6684 75.48 67.0525 74.0466 66.4051 72.9256L64.0614 68.8663Z" fill="url(#paint1_linear_622_1589)"/>
<path d="M51.0938 70.625C49.7994 70.625 48.75 71.6744 48.75 72.9688V77.6562C48.75 78.9506 49.7994 80 51.0938 80C52.3881 80 53.4375 78.9506 53.4375 77.6562V72.9688C53.4375 71.6744 52.3881 70.625 51.0938 70.625Z" fill="url(#paint2_linear_622_1589)"/>
<path d="M70.0397 42.5004C70.4373 42.5004 70.8403 42.3991 71.2094 42.186L75.2689 39.8423C76.3898 39.1951 76.7741 37.7618 76.1267 36.6407C75.4795 35.5195 74.0461 35.1359 72.9252 35.7829L68.8656 38.1266C67.7447 38.7738 67.3605 40.2071 68.0078 41.3282C68.4419 42.0801 69.2297 42.5004 70.0397 42.5004Z" fill="url(#paint3_linear_622_1589)"/>
<path d="M77.6562 48.75H72.9688C71.6744 48.75 70.625 49.7994 70.625 51.0938C70.625 52.3881 71.6744 53.4375 72.9688 53.4375H77.6562C78.9506 53.4375 80 52.3881 80 51.0938C80 49.7994 78.9506 48.75 77.6562 48.75Z" fill="url(#paint4_linear_622_1589)"/>
<path d="M63.2027 30.1195L58.4666 27.3851C56.2246 26.0907 53.3579 26.8589 52.0633 29.1009L32.5321 62.93C31.2377 65.172 32.0058 68.0389 34.2479 69.3332L38.984 72.0676C40.1049 72.7148 41.5383 72.3307 42.1855 71.2098L64.0605 33.3212C64.7077 32.2001 64.3237 30.7667 63.2027 30.1195Z" fill="url(#paint5_linear_622_1589)"/>
<path d="M24.5312 34.6875C27.1202 34.6875 29.2188 32.5889 29.2188 30V2.34375C29.2188 1.04937 28.1694 0 26.875 0H22.1875C20.8931 0 19.8438 1.04937 19.8438 2.34375V30C19.8438 32.5889 21.9423 34.6875 24.5312 34.6875Z" fill="url(#paint6_linear_622_1589)"/>
<path d="M51.3887 64.6447C56.2829 65.329 61.3265 63.0585 63.9493 58.5157C66.5721 53.9729 66.0166 48.4697 62.977 44.5735L51.3887 64.6447Z" fill="url(#paint7_linear_622_1589)"/>
<path d="M33.9062 18.6178V30C33.9062 35.1694 29.7006 39.375 24.5312 39.375C19.3619 39.375 15.1562 35.1694 15.1562 30V16.6606C12.1687 17.9036 9.53938 19.8709 7.49625 22.4C5.69031 20.0811 4.6875 17.2106 4.6875 14.2188V2.34375C4.6875 1.04937 3.63812 0 2.34375 0C1.04937 0 0 1.04937 0 2.34375V14.2188C0 18.8414 1.77 23.2502 4.90922 26.5756C3.01844 30.6975 2.62313 35.3069 3.81172 39.7427C5.16203 44.7819 8.39375 48.9937 12.9119 51.602L28.4733 60.5864L48.0045 26.7573L33.9062 18.6178Z" fill="url(#paint8_linear_622_1589)"/>
</g>
<defs>
<linearGradient id="paint0_linear_622_1589" x1="72.0682" y1="59.687" x2="72.0682" y2="66.719" gradientUnits="userSpaceOnUse">
<stop stop-color="#843497"/>
<stop offset="1" stop-color="#1B1A42"/>
</linearGradient>
<linearGradient id="paint1_linear_622_1589" x1="63.2036" y1="67.6941" x2="63.2036" y2="76.4416" gradientUnits="userSpaceOnUse">
<stop stop-color="#843497"/>
<stop offset="1" stop-color="#1B1A42"/>
</linearGradient>
<linearGradient id="paint2_linear_622_1589" x1="51.0938" y1="70.625" x2="51.0938" y2="80" gradientUnits="userSpaceOnUse">
<stop stop-color="#843497"/>
<stop offset="1" stop-color="#1B1A42"/>
</linearGradient>
<linearGradient id="paint3_linear_622_1589" x1="72.0673" y1="35.4685" x2="72.0673" y2="42.5004" gradientUnits="userSpaceOnUse">
<stop stop-color="#843497"/>
<stop offset="1" stop-color="#1B1A42"/>
</linearGradient>
<linearGradient id="paint4_linear_622_1589" x1="75.3125" y1="48.75" x2="75.3125" y2="53.4375" gradientUnits="userSpaceOnUse">
<stop stop-color="#843497"/>
<stop offset="1" stop-color="#1B1A42"/>
</linearGradient>
<linearGradient id="paint5_linear_622_1589" x1="48.1391" y1="26.7563" x2="48.1391" y2="72.382" gradientUnits="userSpaceOnUse">
<stop stop-color="#843497"/>
<stop offset="1" stop-color="#1B1A42"/>
</linearGradient>
<linearGradient id="paint6_linear_622_1589" x1="24.5312" y1="0" x2="24.5313" y2="34.6875" gradientUnits="userSpaceOnUse">
<stop stop-color="#843497"/>
<stop offset="1" stop-color="#1B1A42"/>
</linearGradient>
<linearGradient id="paint7_linear_622_1589" x1="58.5068" y1="44.5735" x2="58.5068" y2="64.7647" gradientUnits="userSpaceOnUse">
<stop stop-color="#843497"/>
<stop offset="1" stop-color="#1B1A42"/>
</linearGradient>
<linearGradient id="paint8_linear_622_1589" x1="24.0023" y1="0" x2="24.0023" y2="60.5864" gradientUnits="userSpaceOnUse">
<stop stop-color="#843497"/>
<stop offset="1" stop-color="#1B1A42"/>
</linearGradient>
<clipPath id="clip0_622_1589">
<rect width="80" height="80" fill="white"/>
</clipPath>
</defs>
</svg>
