<svg width="80" height="80" viewBox="0 0 80 80" fill="none" xmlns="http://www.w3.org/2000/svg">
<g clip-path="url(#clip0_622_1581)">
<path d="M77.6562 71.0938H2.34375C1.04937 71.0938 0 72.1431 0 73.4375V77.6562C0 78.9506 1.04937 80 2.34375 80H77.6562C78.9506 80 80 78.9506 80 77.6562V73.4375C80 72.1431 78.9506 71.0938 77.6562 71.0938Z" fill="#77EA44"/>
<path d="M13.9062 64.6875V67.9688H66.0938V64.6875C66.0938 63.3931 65.0444 62.3438 63.75 62.3438H16.25C14.9556 62.3438 13.9062 63.3931 13.9062 64.6875Z" fill="#77EA44"/>
<path d="M2.34375 4.6875H4.33359L5.59891 9.195C4.51047 10.3531 3.83 11.8258 3.65828 13.4338C3.45 15.3842 4.01406 17.2992 5.24609 18.8253L7.85266 22.0548C7.55438 22.8136 7.65953 23.7059 8.20813 24.3856C8.61469 24.8892 9.18672 25.1805 9.78312 25.2442C10.3795 25.3078 11.0003 25.1439 11.5039 24.7375L21.1333 16.9656C22.1406 16.1528 22.2981 14.6772 21.485 13.6698C20.9366 12.9902 20.0864 12.6992 19.2817 12.8305L16.675 9.60094C15.443 8.07453 13.6903 7.11906 11.7398 6.91094C11.0978 6.84234 10.46 6.85922 9.83828 6.95422L9.20219 4.6875H40H70.7978L70.1616 6.95422C69.5398 6.85922 68.902 6.84234 68.26 6.91094C66.3095 7.11906 64.5569 8.07453 63.3248 9.60094L60.7183 12.8305C59.9137 12.6992 59.0636 12.9902 58.515 13.6698C57.7019 14.677 57.8594 16.1528 58.8667 16.9656L68.4961 24.7375C68.9997 25.1439 69.6205 25.3078 70.2169 25.2442C70.8133 25.1805 71.3853 24.8894 71.7919 24.3856C72.3406 23.7059 72.4456 22.8134 72.1473 22.0548L74.7539 18.8253C75.9859 17.2991 76.5498 15.3842 76.3417 13.4338C76.17 11.8258 75.4895 10.3531 74.4011 9.195L75.6664 4.6875H77.6562C78.9506 4.6875 80 3.63812 80 2.34375C80 1.04937 78.9506 0 77.6562 0H40H2.34375C1.04937 0 0 1.04937 0 2.34375C0 3.63812 1.04937 4.6875 2.34375 4.6875Z" fill="#77EA44"/>
<path d="M65.3904 28.2544L57.0391 21.5139L43.002 39.0606L55.6371 54.8545L65.3904 28.2544Z" fill="#77EA44"/>
<path d="M14.6104 28.2544L25.391 57.6563H51.8754L22.9616 21.5139L14.6104 28.2544Z" fill="#77EA44"/>
</g>
<defs>
<clipPath id="clip0_622_1581">
<rect width="80" height="80" fill="white"/>
</clipPath>
</defs>
</svg>
