<svg width="80" height="80" viewBox="0 0 80 80" fill="none" xmlns="http://www.w3.org/2000/svg">
<g clip-path="url(#clip0_616_1576)">
<path d="M77.6562 37.6562H61.0938V31.4062H69.8438C71.1375 31.4062 72.1875 30.3563 72.1875 29.0625C72.1875 27.7687 71.1375 26.7188 69.8438 26.7188H61.0938V21.5922C61.0938 20.2984 60.0438 19.2484 58.75 19.2484H54.225V9.375H62.5C63.4672 12.1031 66.0719 14.0625 69.1281 14.0625C73.0047 14.0625 76.1594 10.9078 76.1594 7.03125C76.1594 3.15469 73.0047 0 69.1281 0C66.0719 0 63.4672 1.95938 62.5 4.6875H51.8813C50.5875 4.6875 49.5375 5.7375 49.5375 7.03125V19.2484H42.3438V2.34375C42.3438 1.05 41.2938 0 40 0C38.7062 0 37.6562 1.05 37.6562 2.34375V19.2484H30.4625V7.03125C30.4625 5.7375 29.4125 4.6875 28.1188 4.6875H17.5C16.5328 1.95938 13.9281 0 10.8719 0C6.99531 0 3.84063 3.15469 3.84063 7.03125C3.84063 10.9078 6.99531 14.0625 10.8719 14.0625C13.9281 14.0625 16.5328 12.1031 17.5 9.375H25.775V19.2484H21.25C19.9562 19.2484 18.9062 20.2984 18.9062 21.5922V26.7188H10.1562C8.8625 26.7188 7.8125 27.7687 7.8125 29.0625C7.8125 30.3563 8.8625 31.4062 10.1562 31.4062H18.9062V37.6562H2.34375C1.05 37.6562 0 38.7062 0 40C0 41.2938 1.05 42.3438 2.34375 42.3438H18.9062V48.5938H10.1562C8.8625 48.5938 7.8125 49.6437 7.8125 50.9375C7.8125 52.2313 8.8625 53.2812 10.1562 53.2812H18.9062V58.4078C18.9062 59.7016 19.9562 60.7516 21.25 60.7516H25.775V70.625H17.5C16.5328 67.8969 13.9281 65.9375 10.8719 65.9375C6.99531 65.9375 3.84063 69.0922 3.84063 72.9688C3.84063 76.8453 6.99531 80 10.8719 80C13.9281 80 16.5328 78.0406 17.5 75.3125H28.1188C29.4125 75.3125 30.4625 74.2625 30.4625 72.9688V60.7516H37.6562V77.6562C37.6562 78.95 38.7062 80 40 80C41.2938 80 42.3438 78.95 42.3438 77.6562V60.7516H49.5375V72.9688C49.5375 74.2625 50.5875 75.3125 51.8813 75.3125H62.5C63.4672 78.0406 66.0719 80 69.1281 80C73.0047 80 76.1594 76.8453 76.1594 72.9688C76.1594 69.0922 73.0047 65.9375 69.1281 65.9375C66.0719 65.9375 63.4672 67.8969 62.5 70.625H54.225V60.7516H58.75C60.0438 60.7516 61.0938 59.7016 61.0938 58.4078V53.2812H69.8438C71.1375 53.2812 72.1875 52.2313 72.1875 50.9375C72.1875 49.6437 71.1375 48.5938 69.8438 48.5938H61.0938V42.3438H77.6562C78.95 42.3438 80 41.2938 80 40C80 38.7062 78.95 37.6562 77.6562 37.6562Z" fill="url(#paint0_linear_616_1576)"/>
<path d="M37.6562 36.436V38.936H32.9688V36.436C32.9688 35.1438 34.0203 34.0923 35.3125 34.0923C36.6047 34.0923 37.6562 35.1438 37.6562 36.436Z" fill="url(#paint1_linear_616_1576)"/>
</g>
<defs>
<linearGradient id="paint0_linear_616_1576" x1="40" y1="0" x2="40" y2="80" gradientUnits="userSpaceOnUse">
<stop stop-color="#843497"/>
<stop offset="1" stop-color="#1B1A42"/>
</linearGradient>
<linearGradient id="paint1_linear_616_1576" x1="35.3125" y1="34.0923" x2="35.3125" y2="38.936" gradientUnits="userSpaceOnUse">
<stop stop-color="#843497"/>
<stop offset="1" stop-color="#1B1A42"/>
</linearGradient>
<clipPath id="clip0_616_1576">
<rect width="80" height="80" fill="white"/>
</clipPath>
</defs>
</svg>
